<?xml version="1.0" encoding="UTF-8" standalone="no"?>
<svg width="36px" height="46px" viewBox="0 0 36 46" version="1.1" xmlns="http://www.w3.org/2000/svg" xmlns:xlink="http://www.w3.org/1999/xlink">
    <!-- Generator: Sketch 41.2 (35397) - http://www.bohemiancoding.com/sketch -->
    <title>Group 14</title>
    <desc>Created with Sketch.</desc>
    <defs></defs>
    <g id="Page-1" stroke="none" stroke-width="1" fill="none" fill-rule="evenodd">
        <g id="Artboard" transform="translate(-30.000000, -33.000000)">
            <g id="Group-14" transform="translate(31.000000, 34.000000)">
                <g id="Page-1">
                    <g>
                        <g id="Group-14">
                            <path d="M33.0936359,5.29000517 C33.7769523,5.29000517 34.3360294,5.85279587 34.3360294,6.54065116 L34.3360294,42.3966718 C34.3360294,43.0845271 33.7769523,43.6473178 33.0936359,43.6473178 L1.65983773,43.6473178 C0.976521298,43.6473178 0.417444219,43.0845271 0.417444219,42.3966718 L0.417444219,1.60059948 C0.417444219,0.912744186 0.976521298,0.349953488 1.65983773,0.349953488 L28.0122465,0.349953488 C28.6955629,0.349953488 29.25464,0.912744186 29.25464,1.60059948 L29.25464,4.03935917 C29.25464,4.72721447 29.813717,5.29000517 30.4970335,5.29000517 L33.0936359,5.29000517 L33.0936359,5.29000517 Z" id="Shape" stroke="#231F20"></path>
                            <path d="M34.4205122,5.22622222 C34.830502,5.62642894 34.9733773,6.14919897 34.7385649,6.39307494 L34.7385649,6.39307494 C34.5049949,6.63570026 33.9819473,6.50813437 33.5719574,6.10792765 L28.6968053,1.34671835 C28.2868154,0.946511628 28.1451826,0.423741602 28.3787525,0.181116279 L28.3787525,0.181116279 C28.6123225,-0.0627596899 29.1353702,0.0648062016 29.54536,0.46501292 L34.4205122,5.22622222 Z" id="Shape" fill="#231F20"></path>
                            <g id="JPG" transform="translate(9.726166, 18.759690)" font-size="6" font-family="Helvetica" fill="#231F20" font-weight="normal">
                                <text>
                                    <tspan x="0.0928422921" y="6.05817778">JPG</tspan>
                                </text>
                            </g>
                            <polyline id="Shape" stroke="#231F20" points="26.1113844 31.2196486 26.1113844 33.6208889 30.0125 33.6208889 30.0125 13.2978915 5.0528144 13.2978915 5.0528144 33.6208889 17.6879564 33.6208889 17.6879564 31.2196486"></polyline>
                            <polyline id="Shape" stroke="#231F20" points="26.1113844 31.2196486 27.837069 31.2196486 27.837069 15.5490543 7.43696755 15.5490543 7.43696755 31.2196486 17.686714 31.2196486"></polyline>
                            <polygon id="Shape" fill="#231F20" points="23.7781694 32.585354 20.4783722 34.6939432 19.915568 30.3929716 19.915568 30.3929716"></polygon>
                            <path d="M14.7360294,31.2196486 L18.3079108,31.2196486" id="Shape" stroke="#231F20"></path>
                            <path d="M25.5100659,31.2296537 L26.4816176,31.2296537" id="Shape" stroke="#231F20" fill="#231F20"></path>
                            <rect id="Rectangle-path" fill="#231F20" transform="translate(22.571349, 34.280468) rotate(-31.959224) translate(-22.571349, -34.280468) " x="22.071353" y="33.1567949" width="0.911889957" height="2.24734461"></rect>
                        </g>
                    </g>
                </g>
            </g>
        </g>
    </g>
</svg>