<?xml version="1.0" encoding="UTF-8" standalone="no"?>
<svg width="54px" height="28px" viewBox="0 0 54 28" version="1.1" xmlns="http://www.w3.org/2000/svg" xmlns:xlink="http://www.w3.org/1999/xlink">
    <!-- Generator: Sketch 41.2 (35397) - http://www.bohemiancoding.com/sketch -->
    <title>Group 46</title>
    <desc>Created with Sketch.</desc>
    <defs></defs>
    <g id="Page-1" stroke="none" stroke-width="1" fill="none" fill-rule="evenodd">
        <g id="Artboard" transform="translate(-22.000000, -36.000000)">
            <g id="Group-46" transform="translate(22.000000, 36.000000)">
                <g id="Page-1">
                    <g>
                        <g id="Group-46">
                            <ellipse id="Oval" stroke="#231F20" cx="42.506" cy="16.9669231" rx="10.0873061" ry="10.0433846"></ellipse>
                            <ellipse id="Oval" stroke="#231F20" cx="10.8520204" cy="16.6686154" rx="10.0873061" ry="10.0433846"></ellipse>
                            <ellipse id="Oval" stroke="#231F20" cx="43.3161429" cy="16.7170769" rx="1.68085714" ry="1.67353846"></ellipse>
                            <ellipse id="Oval" stroke="#231F20" cx="10.9655918" cy="16.324" rx="1.68193878" ry="1.67461538"></ellipse>
                            <path d="M42.5514286,15.3041538 L36.7268367,0.527692308" id="Shape" stroke="#231F20"></path>
                            <path d="M25.5946735,16.5544615 L12.646449,16.5544615" id="Shape" stroke="#231F20"></path>
                            <path d="M26.6092449,14.9487692 L18.2568776,3.84138462" id="Shape" stroke="#231F20"></path>
                            <path d="M17.9951224,3.91353846 L38.3752449,3.91353846" id="Shape" stroke="#231F20"></path>
                            <path d="M36.5613469,3.71215385 L28.0964898,15.2847692" id="Shape" stroke="#231F20"></path>
                            <path d="M18.6181429,3.59692308 L11.6048367,14.546" id="Shape" stroke="#231F20"></path>
                            <path d="M18.4883469,4.31846154 L18.4883469,2.24" id="Shape" stroke="#231F20"></path>
                            <path d="M15.2704898,1.58415385 C15.2704898,2.01707692 15.623102,2.36707692 16.0579184,2.36707692 L20.6148367,2.36707692 C21.0474898,2.36707692 21.4022653,2.01815385 21.4022653,1.58415385 L21.4022653,1.58415385 C21.4022653,1.15123077 21.0485714,0.800153846 20.6148367,0.800153846 L16.0579184,0.800153846 C15.623102,0.800153846 15.2704898,1.15015385 15.2704898,1.58415385 L15.2704898,1.58415385 Z" id="Shape" fill="#231F20"></path>
                            <path d="M36.6370612,1.09630769 C36.6370612,1.09630769 42.0344082,-0.866923077 42.0344082,2.71169231" id="Shape" stroke="#231F20"></path>
                            <path d="M3.62238776,5.92523077 L4.49202041,6.84492308 C8.07330612,4.21938462 12.899551,4.13538462 16.5403265,6.53153846 L17.4359184,5.69261538 C13.3019184,2.83123077 7.71312245,2.87430769 3.62238776,5.92523077 Z" id="Shape" fill="#231F20"></path>
                            <path d="M44.8369184,8.98692308 L44.6616939,9.85169231 C47.6069796,10.8263077 49.5993469,13.5358462 49.6902041,16.5706154 L50.5317143,16.7407692 C50.5100816,13.2396923 48.2332449,10.08 44.8369184,8.98692308 Z" id="Shape" fill="#231F20"></path>
                            <ellipse id="Oval" stroke="#231F20" cx="27.2506531" cy="16.1936923" rx="1.65597959" ry="1.64876923"></ellipse>
                            <path d="M27.6227347,17.9103077 L28.6373061,20.468" id="Shape" stroke="#231F20"></path>
                            <path d="M27.0386531,21.602 C27.1792653,21.9261538 27.5567551,22.0747692 27.8823265,21.9347692 L30.2402857,20.9170769 C30.5658571,20.776 30.7140408,20.4001538 30.5734286,20.076 L30.5734286,20.076 C30.4328163,19.7518462 30.0553265,19.6032308 29.7297551,19.7432308 L27.3717959,20.7609231 C27.0462245,20.9009231 26.8969592,21.2778462 27.0386531,21.602 L27.0386531,21.602 Z" id="Shape" fill="#231F20"></path>
                        </g>
                    </g>
                </g>
            </g>
        </g>
    </g>
</svg>