<?xml version="1.0" encoding="UTF-8" standalone="no"?>
<svg width="46px" height="34px" viewBox="0 0 46 34" version="1.1" xmlns="http://www.w3.org/2000/svg" xmlns:xlink="http://www.w3.org/1999/xlink">
    <!-- Generator: Sketch 41.2 (35397) - http://www.bohemiancoding.com/sketch -->
    <title>Group 25</title>
    <desc>Created with Sketch.</desc>
    <defs></defs>
    <g id="Page-1" stroke="none" stroke-width="1" fill="none" fill-rule="evenodd">
        <g id="Artboard" transform="translate(-25.000000, -37.000000)" stroke="#231F20">
            <g id="Group-25" transform="translate(26.000000, 38.000000)">
                <g id="Page-1">
                    <g>
                        <g id="Group-25">
                            <path d="M22.13,31.74072 C22.13,31.74072 22.0572059,31.78824 21.9672059,31.845 C21.8785294,31.90308 20.8197059,31.28136 19.6166176,30.4656 L12.7236765,25.7862 C11.5205882,24.97044 9.34470588,24.3012 7.88882353,24.3012 L2.68735294,24.3012 C1.23147059,24.3012 0.0402941176,23.1132 0.0402941176,21.6612 L0.0402941176,2.91456 C0.0402941176,1.46256 1.23147059,0.27456 2.68735294,0.27456 L21.7647059,0.27456" id="Shape"></path>
                            <path d="M22.2438235,0.27456 L41.3211765,0.27456 C42.7770588,0.27456 43.9682353,1.46256 43.9682353,2.91456 L43.9682353,21.6612 C43.9682353,23.1132 42.7770588,24.3012 41.3211765,24.3012 L36.1197059,24.3012 C34.6638235,24.3012 32.4879412,24.97044 31.2848529,25.7862 L24.3919118,30.4656 C23.1888235,31.28136 22.1313235,31.90308 22.0413235,31.845 C21.9513235,31.78824 21.8785294,31.74072 21.8785294,31.74072" id="Shape"></path>
                            <path d="M9.18588235,0.28512 L32.8439706,0.28512" id="Shape"></path>
                            <path d="M6.15235294,7.09104 L38.5788235,7.09104" id="Shape"></path>
                            <path d="M6.09014706,10.72632 L38.5166176,10.72632" id="Shape"></path>
                            <path d="M6.09014706,14.10816 L38.5166176,14.10816" id="Shape"></path>
                            <path d="M6.09014706,17.49132 L38.5166176,17.49132" id="Shape"></path>
                        </g>
                    </g>
                </g>
            </g>
        </g>
    </g>
</svg>