<?xml version="1.0" encoding="UTF-8" standalone="no"?>
<svg width="52px" height="24px" viewBox="0 0 52 24" version="1.1" xmlns="http://www.w3.org/2000/svg" xmlns:xlink="http://www.w3.org/1999/xlink">
    <!-- Generator: Sketch 41.2 (35397) - http://www.bohemiancoding.com/sketch -->
    <title>Group 12</title>
    <desc>Created with Sketch.</desc>
    <defs></defs>
    <g id="Page-1" stroke="none" stroke-width="1" fill="none" fill-rule="evenodd">
        <g id="Artboard" transform="translate(-23.000000, -44.000000)">
            <g id="Group-12" transform="translate(23.000000, 45.000000)">
                <g id="Page-1">
                    <g>
                        <g id="Group-12">
                            <path d="M50.9376667,21.1416 C50.9376667,21.7741 50.4276667,22.2916 49.8043333,22.2916 L1.63766667,22.2916 C1.01433333,22.2916 0.504333333,21.7741 0.504333333,21.1416 L0.504333333,14.38535 C0.504333333,13.75285 1.01433333,13.23535 1.63766667,13.23535 L49.8043333,13.23535 C50.4276667,13.23535 50.9376667,13.75285 50.9376667,14.38535 L50.9376667,21.1416 Z" id="Shape" stroke="#231F20"></path>
                            <path d="M3.5156,13.6666 L3.5156,15.6791" id="Shape" stroke="#231F20"></path>
                            <path d="M14.3876667,13.63095 L14.3876667,17.47655" id="Shape" stroke="#231F20"></path>
                            <path d="M7.90726667,13.55965 L7.90726667,17.4409" id="Shape" stroke="#231F20"></path>
                            <path d="M5.67573333,13.6666 L5.67573333,15.6791" id="Shape" stroke="#231F20"></path>
                            <path d="M10.0674,13.73905 L10.0674,15.75155" id="Shape" stroke="#231F20"></path>
                            <path d="M12.2626667,13.73905 L12.2626667,15.75155" id="Shape" stroke="#231F20"></path>
                            <path d="M16.5126667,13.73905 L16.5126667,15.75155" id="Shape" stroke="#231F20"></path>
                            <path d="M18.5674,13.73905 L18.5674,15.75155" id="Shape" stroke="#231F20"></path>
                            <path d="M20.621,13.55965 L20.621,17.4041" id="Shape" stroke="#231F20"></path>
                            <path d="M22.8876667,13.69075 L22.8876667,15.70325" id="Shape" stroke="#231F20"></path>
                            <path d="M25.0840667,13.6666 L25.0840667,15.6791" id="Shape" stroke="#231F20"></path>
                            <path d="M27.3258,13.59415 L27.3258,17.37995" id="Shape" stroke="#231F20"></path>
                            <path d="M29.4757333,13.6551 L29.4757333,15.6676" id="Shape" stroke="#231F20"></path>
                            <path d="M31.671,13.6551 L31.671,15.6676" id="Shape" stroke="#231F20"></path>
                            <path d="M33.8674,13.6735 L33.8674,17.4225" id="Shape" stroke="#231F20"></path>
                            <path d="M36.04,13.72755 L36.04,15.74005" id="Shape" stroke="#231F20"></path>
                            <path d="M38.1876667,13.7034 L38.1876667,15.7159" id="Shape" stroke="#231F20"></path>
                            <path d="M42.9102667,13.79885 L42.9102667,15.81135" id="Shape" stroke="#231F20"></path>
                            <path d="M45.0590667,13.7747 L45.0590667,15.7872" id="Shape" stroke="#231F20"></path>
                            <path d="M40.5257333,13.6735 L40.5257333,17.4225" id="Shape" stroke="#231F20"></path>
                            <path d="M47.396,13.6735 L47.396,17.4225" id="Shape" stroke="#231F20"></path>
                            <polyline id="Shape" stroke="#231F20" points="11.7934667 0.04025 4.5866 3.91115 11.7934667 8.1535"></polyline>
                            <polyline id="Shape" stroke="#231F20" points="10.4833333 0.8832 11.9442 2.36555 10.7519333 3.57535"></polyline>
                            <polyline id="Shape" stroke="#231F20" points="10.7712 4.4574 11.9430667 5.6465 10.5320667 7.0771"></polyline>
                            <rect id="Rectangle-path" fill="#231F20" transform="translate(10.352451, 3.987768) rotate(135.830550) translate(-10.352451, -3.987768) " x="9.75970338" y="3.40240303" width="1.18549602" height="1.17072899"></rect>
                            <rect id="Rectangle-path" fill="#231F20" transform="translate(10.352451, 3.987768) rotate(135.830550) translate(-10.352451, -3.987768) " x="9.75970338" y="3.40240303" width="1.18549602" height="1.17072899"></rect>
                            <rect id="Rectangle-path" fill="#231F20" transform="translate(10.834943, 4.520689) rotate(137.646530) translate(-10.834943, -4.520689) " x="10.2671452" y="3.93534074" width="1.13559585" height="1.17069572"></rect>
                            <path d="M40.018,8.0684 L36.9013333,8.0684 L36.9013333,0.07935 L40.018,0.07935 C42.4773333,0.07935 44.4606667,1.8699 44.4606667,4.0687 C44.4606667,5.17385 43.962,6.17665 43.1573333,6.89425 C42.3515333,7.6245 41.242,8.0684 40.018,8.0684 Z" id="Shape" stroke="#231F20"></path>
                            <path d="M34.6369333,0.18285 L34.6369333,7.5624" id="Shape" stroke="#231F20"></path>
                            <path d="M32.4654667,0.2783 L32.4654667,7.65785" id="Shape" stroke="#231F20"></path>
                            <path d="M7.88006667,2.231 L7.88006667,5.6626" id="Shape" stroke="#231F20"></path>
                            <path d="M11.5282667,0.0943 L37.6595333,0.0943" id="Shape" stroke="#231F20"></path>
                            <path d="M11.475,8.0822 L36.4321333,8.0822" id="Shape" stroke="#231F20"></path>
                        </g>
                    </g>
                </g>
            </g>
        </g>
    </g>
</svg>