<?xml version="1.0" encoding="UTF-8" standalone="no"?>
<svg width="60px" height="48px" viewBox="0 0 60 48" version="1.1" xmlns="http://www.w3.org/2000/svg" xmlns:xlink="http://www.w3.org/1999/xlink">
    <!-- Generator: Sketch 41.2 (35397) - http://www.bohemiancoding.com/sketch -->
    <title>Group 3</title>
    <desc>Created with Sketch.</desc>
    <defs></defs>
    <g id="Page-1" stroke="none" stroke-width="1" fill="none" fill-rule="evenodd">
        <g id="Artboard" transform="translate(-18.000000, -32.000000)">
            <g id="Group-3" transform="translate(18.666667, 32.000000)">
                <g transform="translate(0.000000, 0.000000)" id="Page-1">
                    <g>
                        <g id="Group-3">
                            <path d="M58.4786667,34.708 C58.4786667,36.1746667 57.2786667,37.3746667 55.812,37.3746667 L3.47866667,37.3746667 C2.012,37.3746667 0.812,36.1746667 0.812,34.708 L0.812,3.37466667 C0.812,1.908 2.012,0.708 3.47866667,0.708 L55.812,0.708 C57.2786667,0.708 58.4786667,1.908 58.4786667,3.37466667 L58.4786667,34.708 Z" id="Shape" stroke="#231F20"></path>
                            <path d="M42.4786667,46.5426667 C42.4786667,46.9106667 42.18,47.2093333 41.812,47.2093333 L16.7013333,47.2093333 C16.3333333,47.2093333 16.0346667,46.9106667 16.0346667,46.5426667 L16.0346667,46.5426667 C16.0346667,46.1746667 16.3333333,45.876 16.7013333,45.876 L41.812,45.876 C42.18,45.876 42.4786667,46.1733333 42.4786667,46.5426667 L42.4786667,46.5426667 Z" id="Shape" fill="#231F20"></path>
                            <path d="M22.1973333,41.8306667 C22.4506667,41.5773333 22.4506667,41.168 22.1973333,40.9133333 L22.1973333,40.9133333 C21.9426667,40.6613333 21.5333333,40.6613333 21.28,40.9133333 L16.2026667,45.9906667 C15.9506667,46.244 15.9506667,46.6533333 16.2026667,46.908 L16.2026667,46.908 C16.4573333,47.1613333 16.8666667,47.1613333 17.12,46.908 L22.1973333,41.8306667 Z" id="Shape" fill="#231F20"></path>
                            <path d="M22.416,41.3093333 C22.416,41.66 22.132,41.9453333 21.78,41.9453333 L21.78,41.9453333 C21.4293333,41.9453333 21.144,41.6613333 21.144,41.3093333 L21.144,37.7053333 C21.144,37.3546667 21.428,37.0693333 21.78,37.0693333 L21.78,37.0693333 C22.1306667,37.0693333 22.416,37.3533333 22.416,37.7053333 L22.416,41.3093333 Z" id="Shape" fill="#231F20"></path>
                            <path d="M36.344,41.8026667 C36.0906667,41.5493333 36.0906667,41.14 36.344,40.8853333 L36.344,40.8853333 C36.5986667,40.6333333 37.008,40.6333333 37.2613333,40.8853333 L42.3386667,45.9626667 C42.5906667,46.216 42.5906667,46.6253333 42.3386667,46.88 L42.3386667,46.88 C42.084,47.1333333 41.6746667,47.1333333 41.4213333,46.88 L36.344,41.8026667 Z" id="Shape" fill="#231F20"></path>
                            <path d="M36.1253333,41.2813333 C36.1253333,41.632 36.4093333,41.9173333 36.7613333,41.9173333 L36.7613333,41.9173333 C37.112,41.9173333 37.3973333,41.6333333 37.3973333,41.2813333 L37.3973333,37.6773333 C37.3973333,37.3266667 37.1133333,37.0413333 36.7613333,37.0413333 L36.7613333,37.0413333 C36.4106667,37.0413333 36.1253333,37.3253333 36.1253333,37.6773333 L36.1253333,41.2813333 Z" id="Shape" fill="#231F20"></path>
                            <rect id="Rectangle-path" stroke="#231F20" x="4.42266667" y="5.82" width="50.3333333" height="23.8893333"></rect>
                            <ellipse id="Oval" fill="#231F20" cx="29.424" cy="3.30133333" rx="0.529333333" ry="0.529333333"></ellipse>
                            <ellipse id="Oval" fill="#231F20" cx="29.4306667" cy="33.528" rx="1.85733333" ry="1.85733333"></ellipse>
                            <rect id="Rectangle-path" fill="#231F20" x="20.0333333" y="44.8093333" width="18.6946667" height="0.505333333"></rect>
                            <rect id="Rectangle-path" fill="#231F20" x="21.5053333" y="43.6426667" width="15.6386667" height="0.505333333"></rect>
                            <rect id="Rectangle-path" fill="#231F20" x="22.5333333" y="42.4493333" width="13.5013333" height="0.505333333"></rect>
                            <rect id="Rectangle-path" fill="#231F20" x="21.8666667" y="41.1986667" width="14.4733333" height="0.505333333"></rect>
                            <rect id="Rectangle-path" fill="#231F20" transform="translate(51.196095, 7.829165) rotate(45.000000) translate(-51.196095, -7.829165) " x="48.7714516" y="7.32916454" width="4.84928683" height="0.999990409"></rect>
                            <rect id="Rectangle-path" fill="#231F20" transform="translate(49.290961, 9.464709) rotate(45.000000) translate(-49.290961, -9.464709) " x="44.611673" y="8.96470911" width="9.35857692" height="0.999990409"></rect>
                            <rect id="Rectangle-path" fill="#231F20" transform="translate(46.947622, 11.043353) rotate(45.000000) translate(-46.947622, -11.043353) " x="39.7843578" y="10.5426909" width="14.3265293" height="1.00132373"></rect>
                        </g>
                    </g>
                </g>
            </g>
        </g>
    </g>
</svg>