<?xml version="1.0" encoding="UTF-8" standalone="no"?>
<svg width="36px" height="46px" viewBox="0 0 36 46" version="1.1" xmlns="http://www.w3.org/2000/svg" xmlns:xlink="http://www.w3.org/1999/xlink">
    <!-- Generator: Sketch 41.2 (35397) - http://www.bohemiancoding.com/sketch -->
    <title>Group 20</title>
    <desc>Created with Sketch.</desc>
    <defs></defs>
    <g id="Page-1" stroke="none" stroke-width="1" fill="none" fill-rule="evenodd">
        <g id="Artboard" transform="translate(-30.000000, -33.000000)">
            <g id="Group-20" transform="translate(30.000000, 34.000000)">
                <g id="Page-1">
                    <g>
                        <g id="Group-20">
                            <path d="M33.5904828,5.31 C34.2732414,5.31 34.8318621,5.8725 34.8318621,6.56 L34.8318621,42.3975 C34.8318621,43.085 34.2732414,43.6475 33.5904828,43.6475 L2.18234483,43.6475 C1.49958621,43.6475 0.940965517,43.085 0.940965517,42.3975 L0.940965517,1.62125 C0.940965517,0.93375 1.49958621,0.37125 2.18234483,0.37125 L28.5132414,0.37125 C29.196,0.37125 29.7546207,0.93375 29.7546207,1.62125 L29.7546207,4.05875 C29.7546207,4.74625 30.3132414,5.30875 30.996,5.30875 L33.5904828,5.30875 L33.5904828,5.31 Z" id="Shape" stroke="#231F20"></path>
                            <path d="M34.9162759,5.24625 C35.325931,5.64625 35.4686897,6.16875 35.234069,6.4125 L35.234069,6.4125 C35.0006897,6.655 34.478069,6.5275 34.0684138,6.1275 L29.1972414,1.36875 C28.7875862,0.96875 28.6448276,0.44625 28.8794483,0.20375 L28.8794483,0.20375 C29.1128276,-0.04 29.6354483,0.0875 30.0451034,0.4875 L34.9162759,5.24625 Z" id="Shape" fill="#231F20"></path>
                            <text id="PSD" fill="#231F20" font-family="Helvetica" font-size="6" font-weight="normal">
                                <tspan x="10.3334897" y="24.8315">PSD</tspan>
                            </text>
                            <polyline id="Shape" stroke="#231F20" points="26.6126897 31.22625 26.6126897 33.62625 30.5118621 33.62625 30.5118621 13.31375 5.57255172 13.31375 5.57255172 33.62625 18.1973793 33.62625 18.1973793 31.22625"></polyline>
                            <polyline id="Shape" stroke="#231F20" points="26.6126897 31.22625 28.3382069 31.22625 28.3382069 15.56375 7.95475862 15.56375 7.95475862 31.22625 18.1961379 31.22625"></polyline>
                            <polygon id="Shape" fill="#231F20" points="24.2826207 32.59125 20.9842759 34.7 20.421931 30.40125 20.421931 30.40125"></polygon>
                            <path d="M15.2478621,31.22625 L18.8168276,31.22625" id="Shape" stroke="#231F20"></path>
                            <path d="M26.0131034,31.23625 L26.9826207,31.23625" id="Shape" stroke="#231F20" fill="#231F20"></path>
                            <rect id="Rectangle-path" fill="#231F20" transform="translate(23.081206, 34.283158) rotate(-31.959224) translate(-23.081206, -34.283158) " x="22.5811886" y="33.162087" width="0.911145557" height="2.24618379"></rect>
                        </g>
                    </g>
                </g>
            </g>
        </g>
    </g>
</svg>