<?xml version="1.0" encoding="UTF-8" standalone="no"?>
<svg width="38px" height="48px" viewBox="0 0 38 48" version="1.1" xmlns="http://www.w3.org/2000/svg" xmlns:xlink="http://www.w3.org/1999/xlink">
    <!-- Generator: Sketch 41.2 (35397) - http://www.bohemiancoding.com/sketch -->
    <title>Group 4</title>
    <desc>Created with Sketch.</desc>
    <defs></defs>
    <g id="Page-1" stroke="none" stroke-width="1" fill="none" fill-rule="evenodd">
        <g id="Artboard" transform="translate(-29.000000, -32.000000)">
            <g id="Group-4" transform="translate(30.000000, 32.000000)">
                <g id="Page-1">
                    <g>
                        <g id="Group-4">
                            <path d="M36.4970313,43.1288049 C36.4970313,45.0202683 34.9360938,46.5678293 33.0282813,46.5678293 L3.88615625,46.5678293 C1.97834375,46.5678293 0.41740625,45.0202683 0.41740625,43.1288049 L0.41740625,4.0144878 C0.41740625,2.12302439 1.97834375,0.575463415 3.88615625,0.575463415 L33.0282813,0.575463415 C34.9360938,0.575463415 36.4970313,2.12302439 36.4970313,4.0144878 L36.4970313,43.1288049 Z" id="Shape" stroke="#231F20"></path>
                            <rect id="Rectangle-path" stroke="#231F20" x="2.9715625" y="4.90863415" width="31.1713437" height="33.7139024"></rect>
                            <ellipse id="Oval" stroke="#231F20" fill="#FFFFFF" cx="18.6121563" cy="2.7065122" rx="0.15725" ry="0.155902439"></ellipse>
                            <ellipse id="Oval" stroke="#231F20" cx="18.4664687" cy="42.3619024" rx="1.41871875" ry="1.41458537"></ellipse>
                            <polygon id="Shape" fill="#231F20" points="31.6430938 7.94070732 28.3801563 5.53682927 29.1109063 4.99804878 32.3738438 7.40307317"></polygon>
                            <polygon id="Shape" fill="#231F20" points="31.6292188 10.6529512 24.8940625 5.68929268 25.627125 5.15165854 32.361125 10.1153171"></polygon>
                            <polygon id="Shape" fill="#231F20" points="31.9055625 13.4362683 20.9917188 5.39353659 21.7259375 4.85590244 32.638625 12.8986341"></polygon>
                        </g>
                    </g>
                </g>
            </g>
        </g>
    </g>
</svg>