<?xml version="1.0" encoding="UTF-8" standalone="no"?>
<svg width="27px" height="38px" viewBox="0 0 27 38" version="1.1" xmlns="http://www.w3.org/2000/svg" xmlns:xlink="http://www.w3.org/1999/xlink">
    <!-- Generator: Sketch 41.2 (35397) - http://www.bohemiancoding.com/sketch -->
    <title>Group 29</title>
    <desc>Created with Sketch.</desc>
    <defs></defs>
    <g id="Page-1" stroke="none" stroke-width="1" fill="none" fill-rule="evenodd">
        <g id="Artboard" transform="translate(-35.000000, -36.000000)" stroke="#231F20">
            <g id="Group-29" transform="translate(36.000000, 36.000000)">
                <g id="Page-1">
                    <g>
                        <g id="Group-29">
                            <path d="M7.32911111,33.3391538 C7.32911111,35.2903077 5.76622222,36.8716923 3.83788889,36.8716923 L3.83788889,36.8716923 C1.90955556,36.8716923 0.346666667,35.2903077 0.346666667,33.3391538 L0.346666667,33.3391538 C0.346666667,31.388 1.90955556,29.8066154 3.83788889,29.8066154 L3.83788889,29.8066154 C5.76622222,29.8066154 7.32911111,31.388 7.32911111,33.3391538 L7.32911111,33.3391538 Z" id="Shape"></path>
                            <path d="M24.6624444,33.2178462 C24.6624444,35.169 23.0995556,36.7503846 21.1712222,36.7503846 L21.1712222,36.7503846 C19.2428889,36.7503846 17.68,35.169 17.68,33.2178462 L17.68,33.2178462 C17.68,31.2666923 19.2428889,29.6853077 21.1712222,29.6853077 L21.1712222,29.6853077 C23.0995556,29.6853077 24.6624444,31.2666923 24.6624444,33.2178462 L24.6624444,33.2178462 Z" id="Shape"></path>
                            <path d="M3.83788889,29.5917692 L3.83788889,17.4741538" id="Shape"></path>
                            <path d="M21.2463333,29.3184615 L21.2463333,17.5954615" id="Shape"></path>
                            <path d="M21.9685556,17.5954615 L3.09977778,17.5954615" id="Shape"></path>
                            <path d="M12.2792222,17.2300769 L12.2792222,7.36469231" id="Shape"></path>
                            <path d="M15.8903333,4.38023077 C15.8903333,6.33138462 14.3274444,7.91276923 12.3991111,7.91276923 L12.3991111,7.91276923 C10.4707778,7.91276923 8.90788889,6.33138462 8.90788889,4.38023077 L8.90788889,4.38023077 C8.90788889,2.42907692 10.4707778,0.847692308 12.3991111,0.847692308 L12.3991111,0.847692308 C14.3274444,0.847692308 15.8903333,2.42907692 15.8903333,4.38023077 L15.8903333,4.38023077 Z" id="Shape"></path>
                        </g>
                    </g>
                </g>
            </g>
        </g>
    </g>
</svg>