<?xml version="1.0" encoding="UTF-8" standalone="no"?>
<svg width="50px" height="35px" viewBox="0 0 50 35" version="1.1" xmlns="http://www.w3.org/2000/svg" xmlns:xlink="http://www.w3.org/1999/xlink">
    <!-- Generator: Sketch 41.2 (35397) - http://www.bohemiancoding.com/sketch -->
    <title>Group 6</title>
    <desc>Created with Sketch.</desc>
    <defs></defs>
    <g id="Page-1" stroke="none" stroke-width="1" fill="none" fill-rule="evenodd">
        <g id="Artboard" transform="translate(-24.000000, -34.000000)">
            <g id="Group-6" transform="translate(24.000000, 34.000000)">
                <g id="Page-1">
                    <g>
                        <g id="Group-6">
                            <path d="M22.6186579,13.5869231 C22.6186579,14.0014615 22.2872632,14.3388462 21.8785,14.3388462 L4.26428947,14.3388462 C3.85552632,14.3388462 3.52284211,14.0027692 3.52284211,13.5869231 L3.52284211,13.5869231 C3.52284211,13.1723846 3.85552632,12.8363077 4.26428947,12.8363077 L21.8785,12.8363077 C22.2872632,12.8363077 22.6186579,13.1723846 22.6186579,13.5869231 L22.6186579,13.5869231 Z" id="Shape" fill="#231F20"></path>
                            <path d="M13.3434737,17.1438462 C13.3434737,17.5583846 13.0120789,17.8957692 12.6033158,17.8957692 L4.38034211,17.8957692 C3.97286842,17.8957692 3.64018421,17.5596923 3.64018421,17.1438462 L3.64018421,17.1438462 C3.64018421,16.7293077 3.97286842,16.3932308 4.38034211,16.3932308 L12.6033158,16.3932308 C13.0120789,16.3932308 13.3434737,16.7293077 13.3434737,17.1438462 L13.3434737,17.1438462 Z" id="Shape" fill="#231F20"></path>
                            <path d="M13.3447632,20.7805385 C13.3447632,21.1950769 13.0133684,21.5311538 12.6033158,21.5311538 L4.38163158,21.5311538 C3.97286842,21.5311538 3.64147368,21.1950769 3.64147368,20.7805385 L3.64147368,20.7805385 C3.64147368,20.366 3.97286842,20.0299231 4.38163158,20.0299231 L12.6033158,20.0299231 C13.0133684,20.0299231 13.3447632,20.366 13.3447632,20.7805385 L13.3447632,20.7805385 Z" id="Shape" fill="#231F20"></path>
                            <path d="M22.7733947,24.5950769 C22.7733947,25.0096154 22.4407105,25.3456923 22.0332368,25.3456923 L4.41773684,25.3456923 C4.00897368,25.3456923 3.67757895,25.0096154 3.67757895,24.5950769 L3.67757895,24.5950769 C3.67757895,24.1805385 4.00897368,23.8444615 4.41773684,23.8444615 L22.0332368,23.8444615 C22.4407105,23.8444615 22.7733947,24.1805385 22.7733947,24.5950769 L22.7733947,24.5950769 Z" id="Shape" fill="#231F20"></path>
                            <path d="M22.7746842,28.2893077 C22.7746842,28.7038462 22.442,29.0399231 22.0332368,29.0399231 L4.41902632,29.0399231 C4.01026316,29.0399231 3.67886842,28.7038462 3.67886842,28.2893077 L3.67886842,28.2893077 C3.67886842,27.8747692 4.01026316,27.5386923 4.41902632,27.5386923 L22.0332368,27.5386923 C22.442,27.54 22.7746842,27.8747692 22.7746842,28.2893077 L22.7746842,28.2893077 Z" id="Shape" fill="#231F20"></path>
                            <path d="M48.9316579,30.9896923 C48.9316579,32.4281538 47.7711316,33.6050769 46.3527105,33.6050769 L3.15405263,33.6050769 C1.73563158,33.6050769 0.575105263,32.4281538 0.575105263,30.9896923 L0.575105263,3.24046154 C0.575105263,1.802 1.73563158,0.625076923 3.15405263,0.625076923 L46.3527105,0.625076923 C47.7711316,0.625076923 48.9316579,1.802 48.9316579,3.24046154 L48.9316579,30.9896923 Z" id="Shape" stroke="#231F20"></path>
                            <path d="M0.999342105,7.293 L48.5783421,7.293" id="Shape" stroke="#231F20"></path>
                            <ellipse id="Oval" stroke="#231F20" fill="#231F20" cx="4.7285" cy="4.03030769" rx="0.671815789" ry="0.681307692"></ellipse>
                            <ellipse id="Oval" stroke="#231F20" fill="#231F20" cx="8.01665789" cy="3.995" rx="0.671815789" ry="0.681307692"></ellipse>
                            <ellipse id="Oval" stroke="#231F20" fill="#231F20" cx="11.3215789" cy="4.012" rx="0.671815789" ry="0.681307692"></ellipse>
                            <rect id="Rectangle-path" stroke="#231F20" x="30.7333158" y="13.2194615" width="14.1003947" height="15.1273846"></rect>
                        </g>
                    </g>
                </g>
            </g>
        </g>
    </g>
</svg>