<?xml version="1.0" encoding="UTF-8" standalone="no"?>
<svg width="48px" height="35px" viewBox="0 0 48 35" version="1.1" xmlns="http://www.w3.org/2000/svg" xmlns:xlink="http://www.w3.org/1999/xlink">
    <!-- Generator: Sketch 41.2 (35397) - http://www.bohemiancoding.com/sketch -->
    <title>Group 10</title>
    <desc>Created with Sketch.</desc>
    <defs></defs>
    <g id="Page-1" stroke="none" stroke-width="1" fill="none" fill-rule="evenodd">
        <g id="Artboard" transform="translate(-24.000000, -38.000000)">
            <g id="Group-10" transform="translate(25.000000, 38.000000)">
                <g id="Page-1">
                    <g>
                        <g id="Group-10">
                            <path d="M22.0390833,3.815 C21.8458611,4.00814815 21.4555,3.93425926 21.1682778,3.65037037 L21.1682778,3.65037037 C20.8810556,3.36518519 20.8066389,2.97759259 21.0011667,2.78444444 L23.6253333,0.178888889 C23.8198611,-0.0142592593 24.2102222,0.0596296296 24.4974444,0.344814815 L24.4974444,0.344814815 C24.7846667,0.63 24.8577778,1.01759259 24.6645556,1.21074074 L22.0390833,3.815 Z" id="Shape" fill="#231F20"></path>
                            <path d="M40.0270278,3.815 C40.22025,4.00814815 40.6106111,3.93425926 40.8978333,3.65037037 L40.8978333,3.65037037 C41.1850556,3.36518519 41.2594722,2.97759259 41.0649444,2.78444444 L38.4407778,0.178888889 C38.24625,-0.0142592593 37.8558889,0.0596296296 37.5686667,0.344814815 L37.5686667,0.344814815 C37.2814444,0.63 37.2083333,1.01759259 37.4015556,1.21074074 L40.0270278,3.815 Z" id="Shape" fill="#231F20"></path>
                            <path d="M38.6888333,0.688333333 C38.6888333,1.04611111 38.41075,1.33648148 38.0647778,1.33648148 L24.0535556,1.33648148 C23.7075833,1.33648148 23.4295,1.04611111 23.4295,0.688333333 L23.4295,0.688333333 C23.4295,0.330555556 23.7075833,0.0401851852 24.0535556,0.0401851852 L38.0647778,0.0401851852 C38.41075,0.0401851852 38.6888333,0.329259259 38.6888333,0.688333333 L38.6888333,0.688333333 Z" id="Shape" fill="#231F20"></path>
                            <path d="M5.26138889,1.49851852 C5.26138889,1.14074074 5.55383333,0.85037037 5.91416667,0.85037037 L5.91416667,0.85037037 C6.2745,0.85037037 6.56694444,1.14074074 6.56694444,1.49851852 L6.56694444,3.28092593 C6.56694444,3.6387037 6.2745,3.92907407 5.91416667,3.92907407 L5.91416667,3.92907407 C5.55383333,3.92907407 5.26138889,3.6387037 5.26138889,3.28092593 L5.26138889,1.49851852 Z" id="Shape" fill="#231F20"></path>
                            <path d="M9.9405,1.44407407 C9.9405,1.0862963 10.2329444,0.795925926 10.5932778,0.795925926 L10.5932778,0.795925926 C10.9536111,0.795925926 11.2460556,1.0862963 11.2460556,1.44407407 L11.2460556,3.22648148 C11.2460556,3.58425926 10.9536111,3.87462963 10.5932778,3.87462963 L10.5932778,3.87462963 C10.2329444,3.87462963 9.9405,3.58425926 9.9405,3.22648148 L9.9405,1.44407407 Z" id="Shape" fill="#231F20"></path>
                            <path d="M5.26138889,1.41037037 C5.26138889,1.06685185 5.56036111,0.789444444 5.93113889,0.789444444 L10.5776111,0.789444444 C10.9470833,0.789444444 11.2473611,1.06685185 11.2473611,1.41037037 L11.2473611,1.41037037 C11.2473611,1.75388889 10.9483889,2.0312963 10.5776111,2.0312963 L5.93113889,2.0312963 C5.56036111,2.0312963 5.26138889,1.75388889 5.26138889,1.41037037 L5.26138889,1.41037037 Z" id="Shape" fill="#231F20"></path>
                            <path d="M46.2231944,30.1790741 C46.2231944,32.317963 44.4606944,34.067963 42.3065278,34.067963 L4.22738889,34.067963 C2.07322222,34.067963 0.310722222,32.317963 0.310722222,30.1790741 L0.310722222,7.27740741 C0.310722222,5.13851852 2.07322222,3.38851852 4.22738889,3.38851852 L42.3065278,3.38851852 C44.4606944,3.38851852 46.2231944,5.13851852 46.2231944,7.27740741 L46.2231944,30.1790741 Z" id="Shape" stroke="#231F20"></path>
                            <ellipse id="Oval" stroke="#231F20" cx="30.9925833" cy="18.7288889" rx="11.0972222" ry="11.0185185"></ellipse>
                            <ellipse id="Oval" stroke="#231F20" cx="30.9925833" cy="18.7288889" rx="8.37775" ry="8.31833333"></ellipse>
                            <ellipse id="Oval" stroke="#231F20" cx="8.68847222" cy="11.4903704" rx="2.71947222" ry="2.70018519"></ellipse>
                            <path d="M14.6718333,21.6714815 C14.6718333,22.015 14.3911389,22.2924074 14.0464722,22.2924074 L5.94027778,22.2924074 C5.59430556,22.2924074 5.31491667,22.015 5.31491667,21.6714815 L5.31491667,21.6714815 C5.31491667,21.327963 5.59561111,21.0505556 5.94027778,21.0505556 L14.0451667,21.0505556 C14.3911389,21.0505556 14.6718333,21.3292593 14.6718333,21.6714815 L14.6718333,21.6714815 Z" id="Shape" fill="#231F20"></path>
                            <path d="M16.5218056,24.4805556 C16.5218056,24.8240741 16.1862778,25.1014815 15.7724167,25.1014815 L6.06430556,25.1014815 C5.65044444,25.1014815 5.31491667,24.8240741 5.31491667,24.4805556 L5.31491667,24.4805556 C5.31491667,24.137037 5.65044444,23.8596296 6.06430556,23.8596296 L15.7724167,23.8596296 C16.1862778,23.8596296 16.5218056,24.1383333 16.5218056,24.4805556 L16.5218056,24.4805556 Z" id="Shape" fill="#231F20"></path>
                            <path d="M18.6981667,27.4516667 C18.6981667,27.7951852 18.2960556,28.0725926 17.7999444,28.0725926 L6.16091667,28.0725926 C5.6635,28.0725926 5.26269444,27.7951852 5.26269444,27.4516667 L5.26269444,27.4516667 C5.26269444,27.1081481 5.66480556,26.8307407 6.16091667,26.8307407 L17.7999444,26.8307407 C18.2960556,26.8307407 18.6981667,27.1094444 18.6981667,27.4516667 L18.6981667,27.4516667 Z" id="Shape" fill="#231F20"></path>
                            <path d="M4.00544444,9.47722222 C4.78877778,7.67537037 6.58913889,6.41796296 8.69238889,6.41796296 C10.7956389,6.41796296 12.596,7.67537037 13.3793333,9.47722222" id="Shape" stroke="#231F20"></path>
                        </g>
                    </g>
                </g>
            </g>
        </g>
    </g>
</svg>