<?xml version="1.0" encoding="UTF-8" standalone="no"?>
<svg width="47px" height="43px" viewBox="0 0 47 43" version="1.1" xmlns="http://www.w3.org/2000/svg" xmlns:xlink="http://www.w3.org/1999/xlink">
    <!-- Generator: Sketch 41.2 (35397) - http://www.bohemiancoding.com/sketch -->
    <title>Group 44</title>
    <desc>Created with Sketch.</desc>
    <defs></defs>
    <g id="Page-1" stroke="none" stroke-width="1" fill="none" fill-rule="evenodd">
        <g id="Artboard" transform="translate(-26.000000, -36.000000)" stroke="#231F20">
            <g id="Group-44" transform="translate(27.000000, 36.000000)">
                <g id="Page-1">
                    <g>
                        <g id="Group-44">
                            <rect id="Rectangle-path" x="0.467391304" y="13.9058261" width="35.2843043" height="27.6564783"></rect>
                            <path d="M24.5604783,13.9058261 L24.5604783,10.4976087 C24.5604783,5.0683913 29.0418261,0.665565217 34.5682609,0.665565217 C37.3333478,0.665565217 39.8254783,1.7573913 41.6445652,3.54656522 C43.4673913,5.33386957 44.5760435,7.783 44.5760435,10.4976087 L44.5760435,13.9058261" id="Shape"></path>
                            <path d="M28.049087,13.9058261 L28.049087,10.591087 C28.049087,7.22586957 30.9375652,4.48882609 34.5065652,4.48882609 C36.2770435,4.48882609 37.8923478,5.16934783 39.0645652,6.2723913 C40.218087,7.37917391 40.9528261,8.9066087 40.9528261,10.591087 L40.9528261,13.9058261" id="Shape"></path>
                            <path d="M21.0849565,29.5054783 C21.0849565,31.2217391 19.694,32.6164348 17.9758696,32.6164348 L17.9758696,32.6164348 C16.2577391,32.6164348 14.864913,31.2217391 14.864913,29.5054783 L14.864913,24.3136957 C14.864913,22.5955652 16.2577391,21.2027391 17.9758696,21.2027391 L17.9758696,21.2027391 C19.694,21.2027391 21.0849565,22.5955652 21.0849565,24.3136957 L21.0849565,29.5054783 Z" id="Shape"></path>
                            <path d="M40.9472174,12.9486087 L44.577913,12.9486087" id="Shape"></path>
                        </g>
                    </g>
                </g>
            </g>
        </g>
    </g>
</svg>