<?xml version="1.0" encoding="UTF-8" standalone="no"?>
<svg width="45px" height="39px" viewBox="0 0 45 39" version="1.1" xmlns="http://www.w3.org/2000/svg" xmlns:xlink="http://www.w3.org/1999/xlink">
    <!-- Generator: Sketch 41.2 (35397) - http://www.bohemiancoding.com/sketch -->
    <title>Group 37</title>
    <desc>Created with Sketch.</desc>
    <defs></defs>
    <g id="Page-1" stroke="none" stroke-width="1" fill="none" fill-rule="evenodd">
        <g id="Artboard" transform="translate(-26.000000, -36.000000)">
            <g id="Group-37" transform="translate(27.000000, 36.000000)">
                <g id="Page-1">
                    <g>
                        <g id="Group-37">
                            <polyline id="Shape" stroke="#231F20" points="11.9895652 11.039 42.7149565 11.039 42.7149565 38 0.205217391 38 0.205217391 16.777"></polyline>
                            <polygon id="Shape" stroke="#231F20" points="42.6958261 1.178 42.7149565 1.197 42.7149565 7.581 42.6958261 7.6 10.4017391 7.6 10.3711304 7.5848 5.09878261 1.1932 5.1026087 1.178"></polygon>
                            <path d="M0.205217391,16.9822 L41.9382609,16.9822" id="Shape" stroke="#231F20"></path>
                            <path d="M38.2384348,11.039 L32.0153043,17.2178" id="Shape" stroke="#231F20"></path>
                            <path d="M38.2384348,11.039 L32.0153043,17.2178" id="Shape" stroke="#231F20"></path>
                            <path d="M38.2384348,11.039 L32.0153043,17.2178" id="Shape" stroke="#231F20"></path>
                            <path d="M31.602087,11.039 L25.3789565,17.2178" id="Shape" stroke="#231F20"></path>
                            <path d="M25.3789565,11.039 L19.1558261,17.2178" id="Shape" stroke="#231F20"></path>
                            <path d="M18.713913,11.039 L12.4907826,17.2178" id="Shape" stroke="#231F20"></path>
                            <path d="M38.7702609,7.4822 L32.5471304,1.3034" id="Shape" stroke="#231F20"></path>
                            <path d="M32.133913,7.4822 L25.9107826,1.3034" id="Shape" stroke="#231F20"></path>
                            <path d="M25.9107826,7.4822 L19.6876522,1.3034" id="Shape" stroke="#231F20"></path>
                            <path d="M19.2457391,7.4822 L13.0226087,1.3034" id="Shape" stroke="#231F20"></path>
                            <path d="M3.31965217,21.9678 L37.3947826,21.9678" id="Shape" stroke="#231F20"></path>
                            <path d="M3.31965217,26.7178 L13.96,26.7178" id="Shape" stroke="#231F20"></path>
                            <path d="M3.31965217,31.7072 L13.96,31.7072" id="Shape" stroke="#231F20"></path>
                            <path d="M6.62730435,1.1837 L0.205217391,1.1837" id="Shape" stroke="#231F20"></path>
                            <path d="M0.205217391,18.4072 L0.205217391,0.2375" id="Shape" stroke="#231F20"></path>
                            <path d="M12.4907826,11.039 L0.205217391,11.039" id="Shape" stroke="#231F20"></path>
                            <path d="M10.3826087,7.6 L6.92,11.039" id="Shape" stroke="#231F20"></path>
                            <path d="M12.5711304,11.039 L6.348,17.2178" id="Shape" stroke="#231F20"></path>
                            <ellipse id="Oval" fill="#231F20" cx="4.09634783" cy="6.3536" rx="1.43478261" ry="1.425"></ellipse>
                        </g>
                    </g>
                </g>
            </g>
        </g>
    </g>
</svg>