<?xml version="1.0" encoding="UTF-8" standalone="no"?>
<svg width="46px" height="39px" viewBox="0 0 46 39" version="1.1" xmlns="http://www.w3.org/2000/svg" xmlns:xlink="http://www.w3.org/1999/xlink">
    <!-- Generator: Sketch 41.2 (35397) - http://www.bohemiancoding.com/sketch -->
    <title>Group 26</title>
    <desc>Created with Sketch.</desc>
    <defs></defs>
    <g id="Page-1" stroke="none" stroke-width="1" fill="none" fill-rule="evenodd">
        <g id="Artboard" transform="translate(-25.000000, -35.000000)" stroke="#231F20">
            <g id="Group-26" transform="translate(26.000000, 36.000000)">
                <g id="Page-1">
                    <g>
                        <g id="Group-26">
                            <path d="M43.824,33.8978109 C43.824,35.5066784 42.504,36.8230246 40.8906667,36.8230246 L3.124,36.8230246 C1.51066667,36.8230246 0.190666667,35.5066784 0.190666667,33.8978109 L0.190666667,11.7363921 C0.190666667,10.1275246 1.51066667,8.81117842 3.124,8.81117842 L40.8906667,8.81117842 C42.504,8.81117842 43.824,10.1275246 43.824,11.7363921 L43.824,33.8978109 Z" id="Shape"></path>
                            <path d="M25.4686667,20.490094 C25.4686667,22.2071944 24.0738667,23.5981335 22.352,23.5981335 L22.352,23.5981335 C20.6301333,23.5981335 19.2353333,22.2071944 19.2353333,20.490094 L19.2353333,20.490094 C19.2353333,18.7729936 20.6301333,17.3820545 22.352,17.3820545 L22.352,17.3820545 C24.0738667,17.3820545 25.4686667,18.7729936 25.4686667,20.490094 L25.4686667,20.490094 Z" id="Shape"></path>
                            <path d="M1.29066667,9.94762393 C1.29066667,9.94762393 9.724,18.9060908 19.074,20.0030459" id="Shape"></path>
                            <path d="M42.724,10.1304498 C42.724,10.1304498 34.2906667,19.0889167 24.9406667,20.1858718" id="Shape"></path>
                            <path d="M12.4461333,8.81410363 L12.4461333,3.12456303 C12.4461333,1.51569551 13.7661333,0.199349359 15.3794667,0.199349359 L29.3714667,0.199349359 C30.9848,0.199349359 32.3048,1.51569551 32.3048,3.12456303 L32.3048,8.81410363" id="Shape"></path>
                            <path d="M15.4968,8.81410363 L15.4968,4.83581303 C15.4968,4.03137927 16.1568,3.3732062 16.9634667,3.3732062 L27.3474667,3.3732062 C28.1541333,3.3732062 28.8141333,4.03137927 28.8141333,4.83581303 L28.8141333,8.81410363" id="Shape"></path>
                        </g>
                    </g>
                </g>
            </g>
        </g>
    </g>
</svg>