<?xml version="1.0" encoding="UTF-8" standalone="no"?>
<svg width="36px" height="38px" viewBox="0 0 36 38" version="1.1" xmlns="http://www.w3.org/2000/svg" xmlns:xlink="http://www.w3.org/1999/xlink">
    <!-- Generator: Sketch 41.2 (35397) - http://www.bohemiancoding.com/sketch -->
    <title>Group 28</title>
    <desc>Created with Sketch.</desc>
    <defs></defs>
    <g id="Page-1" stroke="none" stroke-width="1" fill="none" fill-rule="evenodd">
        <g id="Artboard" transform="translate(-30.000000, -36.000000)" stroke="#231F20">
            <g id="Group-28" transform="translate(31.000000, 36.000000)">
                <g id="Page-1">
                    <g>
                        <g id="Group-28">
                            <path d="M7.08354167,33.1856923 C7.08354167,35.1368462 5.505625,36.7182308 3.55875,36.7182308 L3.55875,36.7182308 C1.611875,36.7182308 0.0339583333,35.1368462 0.0339583333,33.1856923 L0.0339583333,33.1856923 C0.0339583333,31.2345385 1.611875,29.6531538 3.55875,29.6531538 L3.55875,29.6531538 C5.505625,29.6531538 7.08354167,31.2345385 7.08354167,33.1856923 L7.08354167,33.1856923 Z" id="Shape"></path>
                            <path d="M20.450625,33.1842308 C20.450625,35.1353846 18.8727083,36.7167692 16.9258333,36.7167692 L16.9258333,36.7167692 C14.9789583,36.7167692 13.4010417,35.1353846 13.4010417,33.1842308 L13.4010417,33.1842308 C13.4010417,31.2330769 14.9789583,29.6516923 16.9258333,29.6516923 L16.9258333,29.6516923 C18.8727083,29.6516923 20.450625,31.2330769 20.450625,33.1842308 L20.450625,33.1842308 Z" id="Shape"></path>
                            <path d="M33.864375,33.1243077 C33.864375,35.0754615 32.2864583,36.6568462 30.3395833,36.6568462 L30.3395833,36.6568462 C28.3927083,36.6568462 26.8147917,35.0754615 26.8147917,33.1243077 L26.8147917,33.1243077 C26.8147917,31.1731538 28.3927083,29.5917692 30.3395833,29.5917692 L30.3395833,29.5917692 C32.2864583,29.5917692 33.864375,31.1731538 33.864375,33.1243077 L33.864375,33.1243077 Z" id="Shape"></path>
                            <path d="M20.389375,4.199 C20.389375,6.15015385 18.8114583,7.73153846 16.8645833,7.73153846 L16.8645833,7.73153846 C14.9177083,7.73153846 13.3397917,6.15015385 13.3397917,4.199 L13.3397917,4.199 C13.3397917,2.24784615 14.9177083,0.666461538 16.8645833,0.666461538 L16.8645833,0.666461538 C18.8114583,0.666461538 20.389375,2.24784615 20.389375,4.199 L20.389375,4.199 Z" id="Shape"></path>
                            <path d="M17.0089583,29.2424615 L17.0089583,7.36469231" id="Shape"></path>
                            <path d="M4.86395833,29.8811538 L17.169375,17.5501538" id="Shape"></path>
                            <path d="M16.85,17.6407692 L29.10875,29.9279231" id="Shape"></path>
                        </g>
                    </g>
                </g>
            </g>
        </g>
    </g>
</svg>