<?xml version="1.0" encoding="UTF-8" standalone="no"?>
<svg width="37px" height="42px" viewBox="0 0 37 42" version="1.1" xmlns="http://www.w3.org/2000/svg" xmlns:xlink="http://www.w3.org/1999/xlink">
    <!-- Generator: Sketch 41.2 (35397) - http://www.bohemiancoding.com/sketch -->
    <title>Group 43</title>
    <desc>Created with Sketch.</desc>
    <defs></defs>
    <g id="Page-1" stroke="none" stroke-width="1" fill="none" fill-rule="evenodd">
        <g id="Artboard" transform="translate(-31.000000, -36.000000)" stroke="#231F20">
            <g id="Group-43" transform="translate(31.000000, 36.000000)">
                <g id="Page-1">
                    <g>
                        <g id="Group-43">
                            <rect id="Rectangle-path" x="0.83805" y="13.837" width="34.91505" height="27.36705"></rect>
                            <path d="M8.4619,13.837 L8.4619,10.46445 C8.4619,5.09205 12.89635,0.7353 18.36495,0.7353 C21.1011,0.7353 23.56715,1.8157 25.36905,3.58615 C27.17095,5.35475 28.26985,7.77825 28.26985,10.46445 L28.26985,13.837" id="Shape"></path>
                            <path d="M11.91215,13.837 L11.91215,10.55695 C11.91215,7.22695 14.7704,4.51855 18.3039,4.51855 C20.054,4.51855 21.6524,5.19195 22.81235,6.28345 C23.95565,7.37865 24.679,8.8901 24.679,10.55695 L24.679,13.837" id="Shape"></path>
                            <path d="M21.23985,29.2734 C21.23985,30.9717 19.8616,32.3518 18.16145,32.3518 L18.16145,32.3518 C16.4613,32.3518 15.08305,30.9717 15.08305,29.2734 L15.08305,24.13595 C15.08305,22.4358 16.4613,21.05755 18.16145,21.05755 L18.16145,21.05755 C19.8616,21.05755 21.23985,22.4358 21.23985,24.13595 L21.23985,29.2734 Z" id="Shape"></path>
                        </g>
                    </g>
                </g>
            </g>
        </g>
    </g>
</svg>