<?xml version="1.0" encoding="UTF-8" standalone="no"?>
<svg width="48px" height="29px" viewBox="0 0 48 29" version="1.1" xmlns="http://www.w3.org/2000/svg" xmlns:xlink="http://www.w3.org/1999/xlink">
    <!-- Generator: Sketch 41.2 (35397) - http://www.bohemiancoding.com/sketch -->
    <title>Group 33</title>
    <desc>Created with Sketch.</desc>
    <defs></defs>
    <g id="Page-1" stroke="none" stroke-width="1" fill="none" fill-rule="evenodd">
        <g id="Artboard" transform="translate(-24.000000, -37.000000)" stroke="#231F20">
            <g id="Group-33" transform="translate(25.000000, 37.000000)">
                <g id="Page-1">
                    <g>
                        <g id="Group-33">
                            <path d="M46.2278571,19.7783333 C45.6823214,15.0966667 40.9672143,11.4833333 35.2265,11.505 C34.6608214,5.28166667 28.79925,0.471666667 21.7458929,0.566666667 C15.3404643,0.653333333 10.0445714,4.73166667 8.82425,10.1533333 C3.86407143,10.295 -0.0621071429,14.2616667 0.00503571429,19.115 C0.0537142857,22.7916667 2.39364286,25.9033333 5.67021429,27.2033333 L7.06175,27.4416667 C7.06175,27.4416667 30.9646071,28.7 41.6285714,27.2683333 L41.6470357,27.2683333 C42.4611429,27.1466667 43.18125,27.0266667 43.8275,26.8716667" id="Shape"></path>
                            <path d="M7.75164286,10.1933333 C7.75164286,10.1933333 16.3073214,9.61833333 16.0370714,15.2516667" id="Shape"></path>
                            <path d="M35.6562143,11.4266667 C35.6562143,11.4266667 27.7853929,11.3033333 28.1043214,17.7333333" id="Shape"></path>
                            <path d="M41.6268929,27.2666667 L41.6638214,27.2666667" id="Shape"></path>
                            <path d="M45.9827857,18.5683333 C45.9827857,18.5683333 48.0642143,25.2733333 43.5354286,26.9466667" id="Shape"></path>
                        </g>
                    </g>
                </g>
            </g>
        </g>
    </g>
</svg>