<?xml version="1.0" encoding="UTF-8" standalone="no"?>
<svg width="36px" height="46px" viewBox="0 0 36 46" version="1.1" xmlns="http://www.w3.org/2000/svg" xmlns:xlink="http://www.w3.org/1999/xlink">
    <!-- Generator: Sketch 41.2 (35397) - http://www.bohemiancoding.com/sketch -->
    <title>Group 13</title>
    <desc>Created with Sketch.</desc>
    <defs></defs>
    <g id="Page-1" stroke="none" stroke-width="1" fill="none" fill-rule="evenodd">
        <g id="Artboard" transform="translate(-30.000000, -33.000000)">
            <g id="Group-13" transform="translate(30.000000, 34.000000)">
                <g id="Page-1">
                    <g>
                        <g id="Group-13">
                            <path d="M33.4812414,5.29000517 C34.164,5.29000517 34.7226207,5.85279587 34.7226207,6.54065116 L34.7226207,42.3966718 C34.7226207,43.0845271 34.164,43.6473178 33.4812414,43.6473178 L2.07310345,43.6473178 C1.39034483,43.6473178 0.831724138,43.0845271 0.831724138,42.3966718 L0.831724138,1.60059948 C0.831724138,0.912744186 1.39034483,0.349953488 2.07310345,0.349953488 L28.404,0.349953488 C29.0867586,0.349953488 29.6453793,0.912744186 29.6453793,1.60059948 L29.6453793,4.03935917 C29.6453793,4.72721447 30.204,5.29000517 30.8867586,5.29000517 L33.4812414,5.29000517 L33.4812414,5.29000517 Z" id="Shape" stroke="#231F20"></path>
                            <path d="M34.8070345,5.22622222 C35.2166897,5.62642894 35.3594483,6.14919897 35.1248276,6.39307494 L35.1248276,6.39307494 C34.8914483,6.63570026 34.3688276,6.50813437 33.9591724,6.10792765 L29.088,1.34671835 C28.6783448,0.946511628 28.5368276,0.423741602 28.7702069,0.181116279 L28.7702069,0.181116279 C29.0035862,-0.0627596899 29.5262069,0.0648062016 29.9358621,0.46501292 L34.8070345,5.22622222 Z" id="Shape" fill="#231F20"></path>
                            <text id="PNG" fill="#231F20" font-family="Helvetica" font-size="6" font-weight="normal">
                                <tspan x="10.2256138" y="24.8178677">PNG</tspan>
                            </text>
                            <polyline id="Shape" stroke="#231F20" points="26.5046897 31.2196486 26.5046897 33.6208889 30.4026207 33.6208889 30.4026207 13.2978915 5.46206897 13.2978915 5.46206897 33.6208889 18.0868966 33.6208889 18.0868966 31.2196486"></polyline>
                            <polyline id="Shape" stroke="#231F20" points="26.5046897 31.2196486 28.2289655 31.2196486 28.2289655 15.5490543 7.84551724 15.5490543 7.84551724 31.2196486 18.0868966 31.2196486"></polyline>
                            <polygon id="Shape" fill="#231F20" points="24.1733793 32.585354 20.8762759 34.6939432 20.313931 30.3929716 20.313931 30.3929716"></polygon>
                            <path d="M15.1386207,31.2196486 L18.7075862,31.2196486" id="Shape" stroke="#231F20"></path>
                            <path d="M25.9038621,31.2296537 L26.8746207,31.2296537" id="Shape" stroke="#231F20" fill="#231F20"></path>
                            <rect id="Rectangle-path" fill="#231F20" transform="translate(22.969955, 34.281114) rotate(-31.959224) translate(-22.969955, -34.281114) " x="22.4699668" y="33.1576807" width="0.911145557" height="2.24734461"></rect>
                        </g>
                    </g>
                </g>
            </g>
        </g>
    </g>
</svg>