<?xml version="1.0" encoding="UTF-8" standalone="no"?>
<svg width="48px" height="36px" viewBox="0 0 48 36" version="1.1" xmlns="http://www.w3.org/2000/svg" xmlns:xlink="http://www.w3.org/1999/xlink">
    <!-- Generator: Sketch 41.2 (35397) - http://www.bohemiancoding.com/sketch -->
    <title>Group 24</title>
    <desc>Created with Sketch.</desc>
    <defs></defs>
    <g id="Page-1" stroke="none" stroke-width="1" fill="none" fill-rule="evenodd">
        <g id="Artboard" transform="translate(-24.000000, -38.000000)" stroke="#231F20">
            <g id="Group-24" transform="translate(25.000000, 39.000000)">
                <g id="Page-1">
                    <g>
                        <g id="Group-24">
                            <path d="M23.2359706,33.782 C23.2359706,33.782 23.1599412,33.8324 23.0659412,33.8926 C22.9733235,33.9542 21.8674412,33.2948 20.6108824,32.4296 L13.4115882,27.4666 C12.1550294,26.6014 9.88244118,25.8916 8.36185294,25.8916 L2.92920588,25.8916 C1.40861765,25.8916 0.1645,24.6316 0.1645,23.0916 L0.1645,3.2088 C0.1645,1.6688 1.40861765,0.4088 2.92920588,0.4088 L22.8544412,0.4088" id="Shape"></path>
                            <path d="M23.3548529,0.4088 L43.2800882,0.4088 C44.8006765,0.4088 46.0447941,1.6688 46.0447941,3.2088 L46.0447941,23.0916 C46.0447941,24.6316 44.8006765,25.8916 43.2800882,25.8916 L37.8474412,25.8916 C36.3268529,25.8916 34.0542647,26.6014 32.7977059,27.4666 L25.5984118,32.4296 C24.3418529,33.2948 23.2373529,33.9542 23.1433529,33.8926 C23.0493529,33.8324 22.9733235,33.782 22.9733235,33.782" id="Shape"></path>
                            <path d="M9.65988235,0.4228 L34.3694412,0.4228" id="Shape"></path>
                            <path d="M16.8522647,13.7676 C16.8522647,15.2502 15.6662059,16.45 14.2022941,16.45 L14.2022941,16.45 C12.7383824,16.45 11.5523235,15.2502 11.5523235,13.7676 L11.5523235,13.7676 C11.5523235,12.285 12.7383824,11.0838 14.2022941,11.0838 L14.2022941,11.0838 C15.6662059,11.0838 16.8522647,12.285 16.8522647,13.7676 L16.8522647,13.7676 Z" id="Shape"></path>
                            <path d="M25.4919706,13.6514 C25.4919706,15.134 24.3059118,16.3338 22.842,16.3338 L22.842,16.3338 C21.3780882,16.3338 20.1920294,15.134 20.1920294,13.6514 L20.1920294,13.6514 C20.1920294,12.1688 21.3780882,10.9676 22.842,10.9676 L22.842,10.9676 C24.3059118,10.9676 25.4919706,12.1688 25.4919706,13.6514 L25.4919706,13.6514 Z" id="Shape"></path>
                            <path d="M34.2464118,13.7676 C34.2464118,15.2502 33.0603529,16.45 31.5964412,16.45 L31.5964412,16.45 C30.1325294,16.45 28.9464706,15.2502 28.9464706,13.7676 L28.9464706,13.7676 C28.9464706,12.285 30.1325294,11.0838 31.5964412,11.0838 L31.5964412,11.0838 C33.0617353,11.0838 34.2464118,12.285 34.2464118,13.7676 L34.2464118,13.7676 Z" id="Shape"></path>
                        </g>
                    </g>
                </g>
            </g>
        </g>
    </g>
</svg>