<?xml version="1.0" encoding="UTF-8" standalone="no"?>
<svg width="48px" height="34px" viewBox="0 0 48 34" version="1.1" xmlns="http://www.w3.org/2000/svg" xmlns:xlink="http://www.w3.org/1999/xlink">
    <!-- Generator: Sketch 41.2 (35397) - http://www.bohemiancoding.com/sketch -->
    <title>Group 27</title>
    <desc>Created with Sketch.</desc>
    <defs></defs>
    <g id="Page-1" stroke="none" stroke-width="1" fill="none" fill-rule="evenodd">
        <g id="Artboard" transform="translate(-24.000000, -36.000000)">
            <g id="Group-27" transform="translate(24.000000, 37.000000)">
                <g id="Page-1">
                    <g>
                        <g id="Group-27">
                            <path d="M45.904,0.4413125 C46.704,0.4413125 47.3585455,1.0881875 47.3585455,1.8788125 L47.3585455,31.0169375 C47.3585455,31.8075625 46.704,32.4544375 45.904,32.4544375 L2.15127273,32.4544375 C1.35127273,32.4544375 0.696727273,31.8075625 0.696727273,31.0169375 L0.696727273,1.8788125 C0.696727273,1.0881875 1.35127273,0.4413125 2.15127273,0.4413125 L45.904,0.4413125 Z" id="Shape" stroke="#231F20"></path>
                            <path d="M40.1338182,0.4413125 C43.3338182,0.4413125 45.952,0.6080625 45.952,0.8121875 C45.952,1.0163125 44.1483636,3.0575625 41.9432727,5.350375 L28.1396364,19.7066875 C25.9345455,21.9995 22.3287273,21.9995 20.1236364,19.70525 L5.64072727,4.6345 C3.43563636,2.34025 1.63345455,0.46 1.63345455,0.4528125 C1.63345455,0.4470625 4.25163636,0.4413125 7.45163636,0.4413125 L40.1338182,0.4413125 Z" id="Shape" stroke="#231F20"></path>
                            <path d="M2.28218182,31.6868125 C1.96218182,32.0045 1.45745455,32.0145625 1.15345455,31.7126875 L1.15345455,31.7126875 C0.846545455,31.41225 0.858181818,30.912 1.17818182,30.5971875 L13.6509091,18.270625 C13.9694545,17.9558125 14.4741818,17.9443125 14.7810909,18.24475 L14.7810909,18.24475 C15.0850909,18.546625 15.0734545,19.046875 14.7549091,19.3616875 L2.28218182,31.6868125 Z" id="Shape" fill="#231F20"></path>
                            <path d="M45.6814545,31.840625 C46,32.1583125 46.5047273,32.168375 46.8101818,31.8665 L46.8101818,31.8665 C47.1156364,31.5660625 47.104,31.0658125 46.7854545,30.751 L34.3112727,18.4244375 C33.9927273,18.109625 33.488,18.098125 33.1825455,18.3985625 L33.1825455,18.3985625 C32.8770909,18.7004375 32.8887273,19.2006875 33.2072727,19.5155 L45.6814545,31.840625 Z" id="Shape" fill="#231F20"></path>
                            <path d="M17.0458182,5.3891875 C17.0458182,7.115625 15.6290909,8.51575 13.8821818,8.51575 L13.8821818,8.51575 C12.1338182,8.51575 10.7185455,7.115625 10.7185455,5.3891875 L10.7185455,5.3891875 C10.7185455,3.66275 12.1338182,2.262625 13.8821818,2.262625 L13.8821818,2.262625 C15.6290909,2.262625 17.0458182,3.66275 17.0458182,5.3891875 L17.0458182,5.3891875 Z" id="Shape" stroke="#231F20"></path>
                            <path d="M26.7665455,3.59375 C26.7665455,3.9660625 26.4610909,4.2679375 26.0843636,4.2679375 L19.0850909,4.2679375 C18.7083636,4.2679375 18.4029091,3.9660625 18.4029091,3.59375 L18.4029091,3.59375 C18.4029091,3.2214375 18.7083636,2.9195625 19.0850909,2.9195625 L26.0843636,2.9195625 C26.4610909,2.9195625 26.7665455,3.2214375 26.7665455,3.59375 L26.7665455,3.59375 Z" id="Shape" fill="#231F20"></path>
                            <path d="M29.7221818,5.614875 C29.7221818,5.9871875 29.4167273,6.2890625 29.04,6.2890625 L20.9949091,6.2890625 C20.6181818,6.2890625 20.3127273,5.9871875 20.3127273,5.614875 L20.3127273,5.614875 C20.3127273,5.2425625 20.6181818,4.9406875 20.9949091,4.9406875 L29.04,4.9406875 C29.4167273,4.942125 29.7221818,5.2425625 29.7221818,5.614875 L29.7221818,5.614875 Z" id="Shape" fill="#231F20"></path>
                            <path d="M27.4036364,7.817125 C27.4036364,8.1894375 27.0981818,8.4913125 26.7214545,8.4913125 L19.1301818,8.4913125 C18.7534545,8.4913125 18.448,8.1894375 18.448,7.817125 L18.448,7.817125 C18.448,7.4448125 18.7534545,7.1429375 19.1301818,7.1429375 L26.7214545,7.1429375 C27.0981818,7.1429375 27.4036364,7.4448125 27.4036364,7.817125 L27.4036364,7.817125 Z" id="Shape" fill="#231F20"></path>
                        </g>
                    </g>
                </g>
            </g>
        </g>
    </g>
</svg>