<?xml version="1.0" encoding="UTF-8" standalone="no"?>
<svg width="32px" height="46px" viewBox="0 0 32 46" version="1.1" xmlns="http://www.w3.org/2000/svg" xmlns:xlink="http://www.w3.org/1999/xlink">
    <!-- Generator: Sketch 41.2 (35397) - http://www.bohemiancoding.com/sketch -->
    <title>Group 40</title>
    <desc>Created with Sketch.</desc>
    <defs></defs>
    <g id="Page-1" stroke="none" stroke-width="1" fill="none" fill-rule="evenodd">
        <g id="Artboard" transform="translate(-32.000000, -31.000000)" stroke="#231F20">
            <g id="Group-40" transform="translate(32.000000, 32.000000)">
                <g id="Page-1">
                    <g>
                        <g id="Group-40">
                            <path d="M19.2115714,5.57635714 L25.9686429,5.57635714 L29.1097857,5.57635714 C29.9328571,5.57635714 30.6064286,6.31564286 30.6064286,7.21921429 L30.6064286,42.1923571 C30.6064286,43.0959286 29.8671429,43.8352143 28.9635714,43.8352143 L2.3575,43.8352143 C1.45392857,43.8352143 0.714642857,43.0959286 0.714642857,42.1923571 L0.714642857,7.21921429 C0.714642857,6.31564286 1.4145,5.57635714 2.27042857,5.57635714 L5.46907143,5.57635714 L12.1095,5.57635714" id="Shape"></path>
                            <path d="M12.1095,5.57635714 L12.1095,3.71171429 C12.1095,1.76657143 13.7063571,0.169714286 15.6695714,0.169714286 C16.6503571,0.169714286 17.5325714,0.570571429 18.1650714,1.21785714 C18.814,1.852 19.2132143,2.73257143 19.2132143,3.71335714 L19.2132143,5.578" id="Shape"></path>
                            <polyline id="Shape" points="19.2115714 5.57635714 27.6115 5.57635714 27.6115 13.3437857 3.82457143 13.3437857 3.82457143 5.57635714 12.1095 5.57635714"></polyline>
                            <path d="M9.44642857,5.57635714 L12.9292857,5.57635714" id="Shape"></path>
                            <path d="M18.4131429,5.57635714 L21.896,5.57635714" id="Shape"></path>
                            <path d="M16.9986429,4.2095 C16.9986429,4.94878571 16.399,5.55007143 15.6597143,5.55007143 L15.6597143,5.55007143 C14.9204286,5.55007143 14.3224286,4.94878571 14.3224286,4.2095 L14.3224286,4.2095 C14.3224286,3.46857143 14.9220714,2.86892857 15.6597143,2.86892857 L15.6597143,2.86892857 C16.399,2.86728571 16.9986429,3.46857143 16.9986429,4.2095 L16.9986429,4.2095 Z" id="Shape"></path>
                            <path d="M3.82457143,17.6365714 L27.6115,17.6365714" id="Shape"></path>
                            <path d="M3.83278571,21.7946429 L11.1878571,21.7946429" id="Shape"></path>
                            <path d="M3.83278571,26.577 L27.6115,26.577" id="Shape"></path>
                            <path d="M3.83278571,30.5264286 L27.6115,30.5264286" id="Shape"></path>
                            <path d="M3.82457143,38.9345714 L27.6065714,38.9345714" id="Shape"></path>
                        </g>
                    </g>
                </g>
            </g>
        </g>
    </g>
</svg>