<?xml version="1.0" encoding="UTF-8" standalone="no"?>
<svg width="42px" height="41px" viewBox="0 0 42 41" version="1.1" xmlns="http://www.w3.org/2000/svg" xmlns:xlink="http://www.w3.org/1999/xlink">
    <!-- Generator: Sketch 41.2 (35397) - http://www.bohemiancoding.com/sketch -->
    <title>Group 36</title>
    <desc>Created with Sketch.</desc>
    <defs></defs>
    <g id="Page-1" stroke="none" stroke-width="1" fill="none" fill-rule="evenodd">
        <g id="Artboard" transform="translate(-26.000000, -36.000000)" stroke="#231F20">
            <g id="Group-36" transform="translate(27.000000, 36.000000)">
                <g id="Page-1">
                    <g>
                        <g id="Group-36">
                            <path d="M24.5371429,20.328 C24.5371429,22.8146897 22.493,24.8364828 19.9788214,24.8364828 C17.4661071,24.8364828 15.4205,22.8146897 15.4205,20.328 C15.4205,20.1122069 15.4336786,19.9065517 15.4673571,19.7037931 C15.4805357,19.587931 15.5025,19.488 15.5244643,19.3837241 C15.7895,18.1468966 16.5699643,17.0997931 17.6271786,16.4784828 C18.3139286,16.0570345 19.1178214,15.818069 19.9788214,15.818069 C22.1693929,15.818069 23.9938929,17.3532414 24.43025,19.3837241 C24.4990714,19.6936552 24.5371429,20.0108276 24.5371429,20.328 Z" id="Shape"></path>
                            <path d="M30.3474286,20.328 C30.3474286,25.9864138 25.70125,30.5832414 19.9773571,30.5832414 C14.2563929,30.5832414 9.60728571,25.9864138 9.60728571,20.328 C9.60728571,19.8355862 9.63217857,19.3721379 9.71417857,18.9057931 C9.74053571,18.6494483 9.79471429,18.4148276 9.84157143,18.1802069 C10.4404643,15.3691034 12.2181071,12.9852414 14.6224643,11.5688276 C16.18925,10.6129655 18.0166786,10.0713103 19.9773571,10.0713103 C24.9661786,10.0713103 29.1188929,13.5602069 30.10875,18.1816552 C30.2668929,18.8811724 30.3474286,19.6024138 30.3474286,20.328 Z" id="Shape"></path>
                            <path d="M34.8706071,20.328 C34.8706071,28.4542759 28.1978571,35.0569655 19.9744286,35.0569655 C11.7597857,35.0569655 5.08703571,28.4542759 5.08703571,20.328 C5.08703571,19.6255862 5.11925,18.9564828 5.23639286,18.2888276 C5.27739286,17.9151724 5.35646429,17.5806207 5.42235714,17.2417241 C6.28775,13.2068276 8.83560714,9.786 12.2883929,7.75117241 C14.539,6.37531034 17.1644643,5.59903448 19.9744286,5.59903448 C27.1406429,5.59903448 33.1046786,10.6086207 34.5265,17.2417241 C34.7505357,18.254069 34.8706071,19.2881379 34.8706071,20.328 Z" id="Shape"></path>
                            <path d="M39.6397857,20.3265517 C39.6397857,31.0582759 30.8321071,39.774 19.9744286,39.774 C9.127,39.774 0.314928571,31.0582759 0.314928571,20.3265517 C0.314928571,19.3996552 0.361785714,18.5162069 0.514071429,17.6342069 C0.565321429,17.1403448 0.672214286,16.6986207 0.760071429,16.2525517 C1.89782143,10.9243448 5.26421429,6.40717241 9.824,3.72062069 C12.7965,1.90448276 16.2624643,0.880551724 19.9744286,0.880551724 C29.4337143,0.880551724 37.3071786,7.49482759 39.1873214,16.2525517 C39.4831071,17.5878621 39.6397857,18.9564828 39.6397857,20.3265517 Z" id="Shape"></path>
                            <path d="M8.28064286,35.978069 L5.65371429,40.6473103" id="Shape" fill="#231F20"></path>
                            <path d="M31.6608929,36.1142069 L34.2878214,40.782" id="Shape" fill="#231F20"></path>
                        </g>
                    </g>
                </g>
            </g>
        </g>
    </g>
</svg>