<?xml version="1.0" encoding="UTF-8" standalone="no"?>
<svg width="35px" height="45px" viewBox="0 0 35 45" version="1.1" xmlns="http://www.w3.org/2000/svg" xmlns:xlink="http://www.w3.org/1999/xlink">
    <!-- Generator: Sketch 41.2 (35397) - http://www.bohemiancoding.com/sketch -->
    <title>Group 7</title>
    <desc>Created with Sketch.</desc>
    <defs></defs>
    <g id="Page-1" stroke="none" stroke-width="1" fill="none" fill-rule="evenodd">
        <g id="Artboard" transform="translate(-30.000000, -33.000000)">
            <g id="Group-7" transform="translate(31.000000, 34.000000)">
                <g id="Page-1">
                    <g>
                        <g id="Group-7">
                            <path d="M32.0425714,5.25582857 C32.7104286,5.25582857 33.2568571,5.80868571 33.2568571,6.4844 L33.2568571,41.7075429 C33.2568571,42.3832571 32.7104286,42.9361143 32.0425714,42.9361143 L1.31992857,42.9361143 C0.652071429,42.9361143 0.105642857,42.3832571 0.105642857,41.7075429 L0.105642857,1.63154286 C0.105642857,0.955828571 0.652071429,0.402971429 1.31992857,0.402971429 L27.0761429,0.402971429 C27.744,0.402971429 28.2904286,0.955828571 28.2904286,1.63154286 L28.2904286,4.02725714 C28.2904286,4.70297143 28.8368571,5.25582857 29.5047143,5.25582857 L32.0425714,5.25582857 L32.0425714,5.25582857 Z" id="Shape" stroke="#231F20"></path>
                            <path d="M33.3394286,5.19317143 C33.7401429,5.58631429 33.8797857,6.09985714 33.6502857,6.33942857 L33.6502857,6.33942857 C33.422,6.57777143 32.9107857,6.45245714 32.5100714,6.05931429 L27.7452143,1.38214286 C27.3445,0.989 27.2060714,0.475457143 27.4343571,0.237114286 L27.4343571,0.237114286 C27.6626429,-0.00245714286 28.1738571,0.122857143 28.5745714,0.516 L33.3394286,5.19317143 Z" id="Shape" fill="#231F20"></path>
                            <g id="Ai" transform="translate(12.142857, 18.428571)" font-size="6" font-family="Helvetica" fill="#231F20" font-weight="normal">
                                <text>
                                    <tspan x="0.794507143" y="6.11634571">Ai</tspan>
                                </text>
                            </g>
                            <polyline id="Shape" stroke="#231F20" points="25.2182857 30.7278 25.2182857 33.0866571 29.0311429 33.0866571 29.0311429 13.1223714 4.63614286 13.1223714 4.63614286 33.0866571 16.9854286 33.0866571 16.9854286 30.7278"></polyline>
                            <polyline id="Shape" stroke="#231F20" points="25.2182857 30.7278 26.9049286 30.7278 26.9049286 15.3338 6.96635714 15.3338 6.96635714 30.7278 16.9842143 30.7278"></polyline>
                            <polygon id="Shape" fill="#231F20" points="22.9378571 32.0694 19.7127143 34.1407714 19.1626429 29.9157143 19.1626429 29.9157143"></polygon>
                            <path d="M14.1002857,30.7142857 L17.5913571,30.7142857" id="Shape" stroke="#231F20"></path>
                            <path d="M24.6305714,30.7142857 L25.5801429,30.7142857" id="Shape" stroke="#231F20" fill="#231F20"></path>
                            <rect id="Rectangle-path" fill="#231F20" transform="translate(21.765779, 33.729823) rotate(-31.959224) translate(-21.765779, -33.729823) " x="21.2657641" y="32.6277776" width="0.891259443" height="2.20767778"></rect>
                        </g>
                    </g>
                </g>
            </g>
        </g>
    </g>
</svg>