<?xml version="1.0" encoding="UTF-8" standalone="no"?>
<svg width="48px" height="35px" viewBox="0 0 48 35" version="1.1" xmlns="http://www.w3.org/2000/svg" xmlns:xlink="http://www.w3.org/1999/xlink">
    <!-- Generator: Sketch 41.2 (35397) - http://www.bohemiancoding.com/sketch -->
    <title>Group 48</title>
    <desc>Created with Sketch.</desc>
    <defs></defs>
    <g id="Page-1" stroke="none" stroke-width="1" fill="none" fill-rule="evenodd">
        <g id="Artboard" transform="translate(-23.000000, -37.000000)">
            <g id="Group-48" transform="translate(24.000000, 37.000000)">
                <g id="Page-1">
                    <g>
                        <g id="Group-48">
                            <ellipse id="Oval" stroke="#231F20" cx="8.03590698" cy="25.9139062" rx="7.65116279" ry="7.65625"></ellipse>
                            <ellipse id="Oval" stroke="#231F20" cx="32.7655581" cy="20.3773437" rx="13.5261628" ry="13.5351563"></ellipse>
                            <ellipse id="Oval" stroke="#231F20" cx="7.8304186" cy="26.050625" rx="0.956395349" ry="0.95703125"></ellipse>
                            <ellipse id="Oval" stroke="#231F20" cx="32.6966977" cy="20.7875" rx="0.956395349" ry="0.95703125"></ellipse>
                            <path d="M32.7655581,20.3773437 L32.7655581,2.8084375" id="Shape" stroke="#231F20"></path>
                            <path d="M32.4923023,4.6546875 C32.4923023,4.6546875 8.78681395,4.175625 7.83151163,24.0009375" id="Shape" stroke="#231F20"></path>
                            <path d="M32.9699535,0.553125 C32.9699535,0.553125 38.537814,0.79265625 34.8149767,4.51796875" id="Shape" stroke="#231F20"></path>
                            <path d="M32.7655581,3.69765625 L32.7655581,0.00625" id="Shape" stroke="#231F20"></path>
                            <path d="M7.83151163,23.7723438 L7.83151163,25.7771875" id="Shape" stroke="#231F20"></path>
                            <path d="M24.8411395,5.33828125 L24.8411395,3.62875" id="Shape" stroke="#231F20"></path>
                            <path d="M26.651186,2.92875 C26.651186,3.3159375 26.3374884,3.62984375 25.9505581,3.62984375 L22.6376047,3.62984375 C22.2506744,3.62984375 21.9369767,3.31703125 21.9369767,2.92875 L21.9369767,2.92875 C21.9369767,2.5415625 22.2506744,2.22765625 22.6376047,2.22765625 L25.9505581,2.22765625 C26.3374884,2.22765625 26.651186,2.5415625 26.651186,2.92875 L26.651186,2.92875 Z" id="Shape" fill="#231F20"></path>
                            <path d="M22.0572093,17.03375 L23.0223488,17.0064063 C23.7076744,13.6453125 26.4358605,11.0082812 29.889814,10.4821875 L29.8603023,9.486875 C25.8849767,10.0567187 22.7556512,13.14 22.0572093,17.03375 Z" id="Shape" fill="#231F20"></path>
                            <path d="M2.30081395,24.3104688 L2.82546512,24.2929688 C3.19818605,22.4642188 4.68360465,21.0292188 6.56469767,20.7426563 L6.5472093,20.20125 C4.3852093,20.511875 2.68118605,22.1885938 2.30081395,24.3104688 Z" id="Shape" fill="#231F20"></path>
                            <path d="M25.5417674,5.435625 C25.5417674,5.435625 17.8228372,8.16015625 17.4490233,13.0371875" id="Shape" stroke="#231F20"></path>
                        </g>
                    </g>
                </g>
            </g>
        </g>
    </g>
</svg>