<?xml version="1.0" encoding="UTF-8" standalone="no"?>
<svg width="47px" height="40px" viewBox="0 0 47 40" version="1.1" xmlns="http://www.w3.org/2000/svg" xmlns:xlink="http://www.w3.org/1999/xlink">
    <!-- Generator: Sketch 41.2 (35397) - http://www.bohemiancoding.com/sketch -->
    <title>Group 34</title>
    <desc>Created with Sketch.</desc>
    <defs></defs>
    <g id="Page-1" stroke="none" stroke-width="1" fill="none" fill-rule="evenodd">
        <g id="Artboard" transform="translate(-24.000000, -37.000000)" stroke="#231F20">
            <g id="Group-34" transform="translate(24.000000, 37.000000)">
                <g id="Page-1">
                    <g>
                        <g id="Group-34">
                            <path d="M43.8736552,27.1766667 C43.2347586,27.325 42.5412414,27.4533333 41.7384828,27.5816667 L41.702069,27.5816667 C39.1464828,27.93 35.8228966,28.115 32.2626207,28.2066667" id="Shape"></path>
                            <path d="M23.3544828,28.2416667 C22.2951724,28.2233333 21.273931,28.2066667 20.2692414,28.1883333" id="Shape"></path>
                            <path d="M11.1244138,27.8933333 C8.95282759,27.82 7.61875862,27.7466667 7.61875862,27.7466667 L6.24993103,27.5066667 C3.01737931,26.2016667 0.718344828,23.095 0.663724138,19.4166667 C0.590896552,14.565 4.46068966,10.5933333 9.35337931,10.4466667 C10.5583448,5.04166667 15.7787586,0.961666667 22.0965517,0.868333333 C29.0515862,0.776666667 34.8397241,5.59333333 35.4057931,11.8066667 C41.0648276,11.7883333 45.7026207,15.4083333 46.2504828,20.0783333" id="Shape"></path>
                            <path d="M8.30234483,10.5 C8.30234483,10.5 16.7387586,9.925 16.4722759,15.5583333" id="Shape"></path>
                            <path d="M35.817931,11.7316667 C35.817931,11.7316667 28.0568276,11.6083333 28.3713103,18.0383333" id="Shape"></path>
                            <path d="M41.7053793,27.5733333 L41.7417931,27.5733333" id="Shape"></path>
                            <path d="M46.0005517,18.8733333 C46.0005517,18.8733333 48.0529655,25.5783333 43.5873103,27.2516667" id="Shape"></path>
                            <path d="M17.433931,30.3916667 C17.433931,31.3716667 16.4093793,31.8916667 15.7754483,31.8916667 C15.1382069,31.8916667 13.977931,31.3716667 13.977931,30.3916667 C13.977931,29.4083333 15.206069,25.1333333 15.8433103,25.1333333 C16.4772414,25.1333333 17.433931,29.41 17.433931,30.3916667 Z" id="Shape"></path>
                            <path d="M29.9321379,28.2666667 C29.9321379,29.2833333 28.8695172,29.825 28.2091034,29.825 C27.5486897,29.825 26.3470345,29.285 26.3470345,28.2666667 C26.3470345,27.2483333 27.6198621,22.815 28.2802759,22.815 C28.9406897,22.815 29.9321379,27.25 29.9321379,28.2666667 Z" id="Shape"></path>
                            <path d="M24.902069,37.3416667 C24.902069,38.36 23.8394483,38.9016667 23.1790345,38.9016667 C22.5186207,38.9016667 21.3169655,38.3616667 21.3169655,37.3416667 C21.3169655,36.3266667 22.5897931,31.8916667 23.2502069,31.8916667 C23.9089655,31.8933333 24.902069,36.3266667 24.902069,37.3416667 Z" id="Shape"></path>
                        </g>
                    </g>
                </g>
            </g>
        </g>
    </g>
</svg>