<?xml version="1.0" encoding="UTF-8" standalone="no"?>
<svg width="28px" height="48px" viewBox="0 0 28 48" version="1.1" xmlns="http://www.w3.org/2000/svg" xmlns:xlink="http://www.w3.org/1999/xlink">
    <!-- Generator: Sketch 41.2 (35397) - http://www.bohemiancoding.com/sketch -->
    <title>Group 52</title>
    <desc>Created with Sketch.</desc>
    <defs></defs>
    <g id="Page-1" stroke="none" stroke-width="1" fill="none" fill-rule="evenodd">
        <g id="Artboard" transform="translate(-33.000000, -33.000000)">
            <g id="Group-52" transform="translate(34.000000, 34.000000)">
                <g id="Page-1">
                    <g>
                        <g id="Group-52">
                            <g id="Group-2" stroke="#231F20">
                                <path d="M26.46,42.2738889 C26.46,44.4280556 24.7242857,46.1905556 22.6028571,46.1905556 L4.24671429,46.1905556 C2.12528571,46.1905556 0.389571429,44.4280556 0.389571429,42.2738889 L0.389571429,4.32008333 C0.389571429,2.16591667 2.12528571,0.403416667 4.24671429,0.403416667 L22.6028571,0.403416667 C24.7242857,0.403416667 26.46,2.16591667 26.46,4.32008333 L26.46,42.2738889 Z" id="Shape"></path>
                            </g>
                            <rect id="Rectangle-path" stroke="#231F20" x="3.48171429" y="8.413" width="19.8218571" height="26.8356944"></rect>
                            <ellipse id="Oval" stroke="#231F20" fill="#FFFFFF" cx="13.5385714" cy="4.61513889" rx="0.510428571" ry="0.518305556"></ellipse>
                            <ellipse id="Oval" stroke="#231F20" cx="13.6118571" cy="40.8390833" rx="2.55085714" ry="2.59022222"></ellipse>
                            <rect id="Rectangle-path" fill="#231F20" transform="translate(19.853460, 9.991761) rotate(45.000000) translate(-19.853460, -9.991761) " x="17.9461213" y="9.49176052" width="3.81467771" height="0.868186119"></rect>
                            <rect id="Rectangle-path" fill="#231F20" transform="translate(18.406170, 11.622766) rotate(45.000000) translate(-18.406170, -11.622766) " x="14.4699936" y="11.1227657" width="7.87235307" height="0.868186119"></rect>
                            <rect id="Rectangle-path" fill="#231F20" transform="translate(16.908345, 13.039335) rotate(45.000000) translate(-16.908345, -13.039335) " x="10.5293349" y="12.5393352" width="12.7580205" height="0.868186119"></rect>
                        </g>
                    </g>
                </g>
            </g>
        </g>
    </g>
</svg>