<?xml version="1.0" encoding="UTF-8" standalone="no"?>
<svg width="40px" height="38px" viewBox="0 0 40 38" version="1.1" xmlns="http://www.w3.org/2000/svg" xmlns:xlink="http://www.w3.org/1999/xlink">
    <!-- Generator: Sketch 41.2 (35397) - http://www.bohemiancoding.com/sketch -->
    <title>Group 17</title>
    <desc>Created with Sketch.</desc>
    <defs></defs>
    <g id="Page-1" stroke="none" stroke-width="1" fill="none" fill-rule="evenodd">
        <g id="Artboard" transform="translate(-28.000000, -35.000000)">
            <g id="Group-17" transform="translate(29.000000, 35.000000)">
                <g id="Page-1">
                    <g>
                        <g id="Group-17">
                            <polyline id="Shape" stroke="#231F20" points="10.65672 26.7765 0.01672 26.7765 0.01672 10.2765"></polyline>
                            <path d="M0.07448,11.031 L10.58832,11.031" id="Shape" stroke="#231F20"></path>
                            <path d="M9.9864,11.25 L20.68872,0.75" id="Shape" stroke="#231F20"></path>
                            <path d="M10.10496,26.562 L20.68872,37.0935" id="Shape" stroke="#231F20"></path>
                            <path d="M21.21464,37.527 C21.21464,37.671 20.98056,37.7835 20.68872,37.7835 L20.68872,37.7835 C20.3984,37.7835 20.1628,37.671 20.1628,37.527 L20.1628,0.255 C20.1628,0.114 20.39688,0 20.68872,0 L20.68872,0 C20.97904,0 21.21464,0.114 21.21464,0.255 L21.21464,37.527 Z" id="Shape" fill="#231F20"></path>
                            <path d="M3.08256,11.469 L3.08256,26.094" id="Shape" stroke="#231F20"></path>
                            <path d="M5.74256,26.562 L5.74256,11.562" id="Shape" stroke="#231F20"></path>
                            <path d="M32.24832,7.8825 C32.24832,7.8825 44.6424,18.0495 32.31216,30.219" id="Shape" stroke="#231F20"></path>
                            <path d="M26.16832,13.6605 C26.16832,13.6605 32.59792,18.9375 26.20024,25.2495" id="Shape" stroke="#231F20"></path>
                            <path d="M29.56856,10.848 C29.56856,10.848 38.59888,18.2565 29.61264,27.1245" id="Shape" stroke="#231F20"></path>
                        </g>
                    </g>
                </g>
            </g>
        </g>
    </g>
</svg>