<?xml version="1.0" encoding="UTF-8" standalone="no"?>
<svg width="49px" height="39px" viewBox="0 0 49 39" version="1.1" xmlns="http://www.w3.org/2000/svg" xmlns:xlink="http://www.w3.org/1999/xlink">
    <!-- Generator: Sketch 41.2 (35397) - http://www.bohemiancoding.com/sketch -->
    <title>Group 51</title>
    <desc>Created with Sketch.</desc>
    <defs></defs>
    <g id="Page-1" stroke="none" stroke-width="1" fill="none" fill-rule="evenodd">
        <g id="Artboard" transform="translate(-27.000000, -36.000000)" stroke="#231F20">
            <g id="Group-51" transform="translate(27.000000, 37.000000)">
                <g id="Page-1">
                    <g>
                        <g id="Group-51">
                            <path d="M9.63632432,4.4899 L0.540972973,36.5219" id="Shape"></path>
                            <path d="M11.4097297,30.5887 L19.6605405,0.7238" id="Shape"></path>
                            <path d="M19.8278919,36.9925 L28.7351351,5.1568" id="Shape"></path>
                            <path d="M47.7911351,5.2426 L38.6451892,36.4894" id="Shape"></path>
                            <path d="M30.6188108,29.7385 L38.6581622,0.3702" id="Shape"></path>
                            <path d="M11.6198919,30.0765 L0.306162162,36.8066" id="Shape"></path>
                            <path d="M11.5835676,30.3417 L20.0614054,37.2616" id="Shape"></path>
                            <path d="M9.32237838,4.8552 L19.5593514,0.8239" id="Shape"></path>
                            <path d="M19.1571892,0.8239 L28.7351351,5.1568" id="Shape"></path>
                            <path d="M28.7351351,5.1568 L38.963027,0.1856" id="Shape"></path>
                            <path d="M19.4594595,37.3266 L30.9197838,29.3693" id="Shape"></path>
                            <path d="M38.4934054,35.9174 L30.7835676,29.8724" id="Shape"></path>
                            <path d="M47.952,5.8224 L38.5362162,0.1375" id="Shape"></path>
                            <path d="M11.1476757,5.8237 L7.81362162,18.149" id="Shape"></path>
                            <path d="M22.9491892,11.0198 L19.4672432,23.3061" id="Shape"></path>
                            <path d="M25.5956757,8.0142 L20.2923243,27.4284" id="Shape"></path>
                            <path d="M43.2233514,12.6227 C43.4101622,12.247 43.5126486,11.8258 43.5126486,11.3838 C43.5126486,9.8303 42.2555676,8.5667 40.7052973,8.5667 C39.1524324,8.5667 37.8953514,9.8303 37.8953514,11.3838 C37.8953514,11.8258 37.9978378,12.247 38.1807568,12.6227" id="Shape"></path>
                            <polyline id="Shape" points="38.1664865 12.5915 40.6443243 17.3612 43.2298378 12.6071"></polyline>
                            <ellipse id="Oval" stroke-width="0.5" cx="40.7260541" cy="11.246" rx="1.51654054" ry="1.5197"></ellipse>
                            <path d="M11.628973,23.5635 C11.8157838,23.1891 11.9182703,22.7679 11.9182703,22.3246 C11.9182703,20.7711 10.6611892,19.5088 9.11091892,19.5088 C7.55805405,19.5088 6.30097297,20.7711 6.30097297,22.3246 C6.30097297,22.7679 6.40345946,23.1891 6.58637838,23.5635" id="Shape"></path>
                            <polyline id="Shape" points="6.57210811 23.5323 9.04994595 28.3033 11.6354595 23.5479"></polyline>
                            <ellipse id="Oval" stroke-width="0.5" cx="9.13167568" cy="22.1881" rx="1.51654054" ry="1.5197"></ellipse>
                        </g>
                    </g>
                </g>
            </g>
        </g>
    </g>
</svg>