<?xml version="1.0" encoding="UTF-8" standalone="no"?>
<svg width="33px" height="50px" viewBox="0 0 33 50" version="1.1" xmlns="http://www.w3.org/2000/svg" xmlns:xlink="http://www.w3.org/1999/xlink">
    <!-- Generator: Sketch 41.2 (35397) - http://www.bohemiancoding.com/sketch -->
    <title>Group 50</title>
    <desc>Created with Sketch.</desc>
    <defs></defs>
    <g id="Page-1" stroke="none" stroke-width="1" fill="none" fill-rule="evenodd">
        <g id="Artboard" transform="translate(-31.000000, -30.000000)" stroke="#231F20">
            <g id="Group-50" transform="translate(32.000000, 31.000000)">
                <g id="Page-1">
                    <g>
                        <g id="Group-50">
                            <path d="M30.597,13.490625 C30.597,20.6828125 24.81395,26.5109375 17.6793,26.5109375 L17.6793,26.5109375 C10.5462,26.5109375 4.76315,20.6828125 4.76315,13.490625 L4.76315,13.490625 C4.76315,6.2984375 10.5462,0.4703125 17.6793,0.4703125 L17.6793,0.4703125 C24.8124,0.4703125 30.597,6.3 30.597,13.490625 L30.597,13.490625 Z" id="Shape"></path>
                            <polyline id="Shape" points="15.79605 26.3671875 10.6795 46.63125 6.975 40.771875 0.35805 42.521875 10.23 24.4609375 11.2375 24.7875"></polyline>
                            <polyline id="Shape" points="22.12005 25.725 22.165 25.709375 22.227 25.69375 27.776 45.9609375 21.67055 42.725 16.78805 47.553125 16.492 26.9296875 18.6155 26.475"></polyline>
                            <path d="M16.7493,9.1171875 C17.12595,8.346875 17.7444,8.346875 18.12105,9.1171875 L18.36595,9.6171875 C18.7426,10.3875 19.74235,11.11875 20.58555,11.2421875 L21.13115,11.321875 C21.97435,11.4453125 22.165,12.0375 21.5543,12.6375 L21.15905,13.025 C20.54835,13.625 20.16705,14.809375 20.3112,15.65625 L20.40575,16.2046875 C20.5499,17.0515625 20.0508,17.415625 19.29595,17.0171875 L18.80925,16.759375 C18.0544,16.3578125 16.81905,16.3578125 16.0642,16.759375 L15.5775,17.0171875 C14.82265,17.4171875 14.32355,17.0515625 14.4677,16.2046875 L14.56225,15.65625 C14.7064,14.809375 14.3251,13.625 13.7144,13.025 L13.31915,12.6375 C12.70845,12.0375 12.8991,11.4453125 13.7423,11.321875 L14.2879,11.2421875 C15.1311,11.11875 16.13085,10.3875 16.5075,9.6171875 L16.7493,9.1171875 Z" id="Shape"></path>
                            <ellipse id="Oval" cx="17.62195" cy="13.36875" rx="10.14785" ry="10.2296875"></ellipse>
                            <path d="M6.5534,37.6125 L11.00965,28.5296875" id="Shape"></path>
                        </g>
                    </g>
                </g>
            </g>
        </g>
    </g>
</svg>