<?xml version="1.0" encoding="UTF-8" standalone="no"?>
<svg width="48px" height="28px" viewBox="0 0 48 28" version="1.1" xmlns="http://www.w3.org/2000/svg" xmlns:xlink="http://www.w3.org/1999/xlink">
    <!-- Generator: Sketch 41.2 (35397) - http://www.bohemiancoding.com/sketch -->
    <title>Group 49</title>
    <desc>Created with Sketch.</desc>
    <defs></defs>
    <g id="Page-1" stroke="none" stroke-width="1" fill="none" fill-rule="evenodd">
        <g id="Artboard" transform="translate(-26.000000, -36.000000)">
            <g id="Group-49" transform="translate(26.000000, 36.000000)">
                <g id="Page-1">
                    <g>
                        <g id="Group-49">
                            <path d="M1.78117949,21.7477436 C1.78117949,21.7477436 1.04002564,18.0443846 8.81792308,18.0443846 C8.81792308,18.0443846 20.2401282,15.2051026 25.6113846,6.31487179 C30.982641,-2.57415385 25.1799487,1.19187179 43.390641,4.71084615 C43.390641,4.71084615 44.6246923,4.58551282 44.5644359,5.69784615 C44.5017692,6.80897436 46.6637692,18.1685128 45.8611538,20.8836667 C45.8611538,20.8836667 47.1566667,20.7607436 46.3540513,25.8825385 C46.3540513,25.8825385 40.9213333,27.7986923 22.7094359,27.2431282 C4.49874359,26.6851538 1.47387179,24.1555897 1.47387179,24.1555897 C1.47387179,24.1555897 0.175948718,23.1685897 1.78117949,21.7477436 Z" id="Shape" stroke="#231F20"></path>
                            <path d="M27.3045897,3.21528205 C27.3045897,3.21528205 30.033,4.21312821 32.8939744,2.2174359" id="Shape" stroke="#231F20"></path>
                            <path d="M45.0018974,10.7328718 C45.0018974,10.7328718 32.6252308,19.2495128 26.7044359,19.448359 C20.7824359,19.6484103 25.3064872,13.8601795 25.3064872,13.8601795 L26.5043846,12.2621795 C26.5043846,12.2621795 25.3064872,17.3863846 30.6295385,15.0568718 C35.9525897,12.727359 44.5355128,8.86974359 44.5355128,8.86974359" id="Shape" stroke="#231F20"></path>
                            <path d="M15.416,15.190641 C15.416,15.190641 16.6524615,23.5421795 21.9815385,23.4409487" id="Shape" stroke="#231F20"></path>
                            <path d="M1.78117949,21.7477436 C1.78117949,21.7477436 29.6401282,26.0416154 45.8599487,20.8824615" id="Shape" stroke="#231F20"></path>
                            <ellipse id="Oval" fill="#231F20" cx="24.8557692" cy="10.6738205" rx="0.57725641" ry="0.57725641"></ellipse>
                            <ellipse id="Oval" fill="#231F20" cx="23.349359" cy="12.1814359" rx="0.57725641" ry="0.57725641"></ellipse>
                            <circle id="Oval" fill="#231F20" cx="21.6404872" cy="13.5131026" r="0.57725641"></circle>
                            <ellipse id="Oval" fill="#231F20" cx="19.6339487" cy="14.8170513" rx="0.57725641" ry="0.57725641"></ellipse>
                            <path d="M36.6371026,15.792 C37.6723077,17.8045641 38.3351282,20.0352564 38.2399231,22.3961026" id="Shape" stroke="#231F20"></path>
                            <path d="M34.9860769,13.1298718 C31.5394103,8.41782051 26.6333333,5.38089744 26.6333333,5.38089744" id="Shape" stroke="#231F20"></path>
                            <path d="M44.9139231,5.59902564 C44.9139231,5.59902564 48.5522051,5.58215385 45.3851282,11.0618718" id="Shape" stroke="#231F20"></path>
                            <path d="M25.0558205,7.05482051 L25.0558205,7.18738462" id="Shape" stroke="#231F20"></path>
                            <path d="M2.45966667,20.0099487 C2.45966667,20.0099487 8.71669231,19.9135385 11.599359,20.1184103 C12.7695385,20.2027692 14.617,19.5158462 16.403,18.6722564" id="Shape" stroke="#231F20"></path>
                        </g>
                    </g>
                </g>
            </g>
        </g>
    </g>
</svg>