<?xml version="1.0" encoding="UTF-8" standalone="no"?>
<svg width="48px" height="47px" viewBox="0 0 48 47" version="1.1" xmlns="http://www.w3.org/2000/svg" xmlns:xlink="http://www.w3.org/1999/xlink">
    <!-- Generator: Sketch 41.2 (35397) - http://www.bohemiancoding.com/sketch -->
    <title>Group 53</title>
    <desc>Created with Sketch.</desc>
    <defs></defs>
    <g id="Page-1" stroke="none" stroke-width="1" fill="none" fill-rule="evenodd">
        <g id="Artboard" transform="translate(-26.000000, -32.000000)">
            <g id="Group-53" transform="translate(26.000000, 32.000000)">
                <g id="Page-1">
                    <g>
                        <g id="Group-53">
                            <path d="M24.9999211,23.800355 C24.9999211,24.3880868 24.482643,24.8645759 23.842998,24.8645759 L23.842998,24.8645759 C23.2052071,24.8645759 22.686075,24.3880868 22.686075,23.800355 L22.686075,14.6932939 C22.686075,14.1055621 23.2033531,13.629073 23.842998,13.629073 L23.842998,13.629073 C24.482643,13.629073 24.9999211,14.1055621 24.9999211,14.6932939 L24.9999211,23.800355 Z" id="Shape" fill="#231F20"></path>
                            <g id="Group-41">
                                <ellipse id="Oval" stroke="#231F20" cx="23.842998" cy="23.5203945" rx="22.8622091" ry="22.8622091"></ellipse>
                                <ellipse id="Oval" stroke="#231F20" cx="23.842998" cy="23.6316371" rx="17.0683235" ry="17.0683235"></ellipse>
                                <path d="M23.842998,24.8645759 C23.2033531,24.8645759 22.686075,24.3472978 22.686075,23.7076529 L22.686075,23.7076529 C22.686075,23.0698619 23.2033531,22.5525838 23.842998,22.5525838 L33.7343195,22.5525838 C34.3739645,22.5525838 34.8912426,23.0698619 34.8912426,23.7076529 L34.8912426,23.7076529 C34.8912426,24.3472978 34.3739645,24.8645759 33.7343195,24.8645759 L23.842998,24.8645759 Z" id="Shape" fill="#231F20"></path>
                            </g>
                            <path d="M23.842998,6.36678501 L23.842998,9.82828402" id="Shape" stroke="#231F20"></path>
                            <path d="M23.9931755,36.9992899 L23.9931755,40.460789" id="Shape" stroke="#231F20"></path>
                            <path d="M41.0411045,23.5574753 L37.5796055,23.5574753" id="Shape" stroke="#231F20"></path>
                            <path d="M10.4085996,23.7076529 L6.94710059,23.7076529" id="Shape" stroke="#231F20"></path>
                        </g>
                    </g>
                </g>
            </g>
        </g>
    </g>
</svg>