<?xml version="1.0" encoding="UTF-8" standalone="no"?>
<svg width="9px" height="40px" viewBox="0 0 9 40" version="1.1" xmlns="http://www.w3.org/2000/svg" xmlns:xlink="http://www.w3.org/1999/xlink">
    <!-- Generator: Sketch 41.2 (35397) - http://www.bohemiancoding.com/sketch -->
    <title>Group 30</title>
    <desc>Created with Sketch.</desc>
    <defs></defs>
    <g id="Page-1" stroke="none" stroke-width="1" fill="none" fill-rule="evenodd">
        <g id="Artboard" transform="translate(-44.000000, -35.000000)" stroke="#231F20">
            <g id="Group-30" transform="translate(44.000000, 35.000000)">
                <g id="Page-1">
                    <g>
                        <g id="Group-30">
                            <path d="M8.2365,4.48307692 C8.2365,6.53692308 6.6135,8.20153846 4.611,8.20153846 L4.611,8.20153846 C2.6085,8.20153846 0.9855,6.53692308 0.9855,4.48307692 L0.9855,4.48307692 C0.9855,2.42923077 2.6085,0.764615385 4.611,0.764615385 L4.611,0.764615385 C6.6135,0.764615385 8.2365,2.42923077 8.2365,4.48307692 L8.2365,4.48307692 Z" id="Shape"></path>
                            <path d="M8.064,34.8046154 C8.064,36.8584615 6.441,38.5230769 4.4385,38.5230769 L4.4385,38.5230769 C2.436,38.5230769 0.813,36.8584615 0.813,34.8046154 L0.813,34.8046154 C0.813,32.7507692 2.436,31.0861538 4.4385,31.0861538 L4.4385,31.0861538 C6.441,31.0861538 8.064,32.7507692 8.064,34.8046154 L8.064,34.8046154 Z" id="Shape"></path>
                            <path d="M4.4385,7.88 L4.4385,31.0861538" id="Shape"></path>
                        </g>
                    </g>
                </g>
            </g>
        </g>
    </g>
</svg>