<?xml version="1.0" encoding="UTF-8" standalone="no"?>
<svg width="40px" height="40px" viewBox="0 0 40 40" version="1.1" xmlns="http://www.w3.org/2000/svg" xmlns:xlink="http://www.w3.org/1999/xlink">
    <!-- Generator: Sketch 41.2 (35397) - http://www.bohemiancoding.com/sketch -->
    <title>Group 8</title>
    <desc>Created with Sketch.</desc>
    <defs></defs>
    <g id="Page-1" stroke="none" stroke-width="1" fill="none" fill-rule="evenodd">
        <g id="Artboard" transform="translate(-28.000000, -37.000000)">
            <g id="Group-8" transform="translate(29.000000, 37.000000)">
                <g id="Page-1">
                    <g>
                        <g id="Group-8">
                            <ellipse id="Oval" stroke="#231F20" cx="14.0915" cy="14.667" rx="13.7625" ry="13.7625"></ellipse>
                            <ellipse id="Oval" stroke="#231F20" cx="14.135" cy="14.5335" rx="9.819" ry="9.819"></ellipse>
                            <path d="M25.934,21.675 L37.058,32.823 C38.2235,33.99 38.2235,35.9025 37.0595,37.0725 L36.4745,37.659 C35.3105,38.8275 33.4025,38.8305 32.234,37.6635 L21.071,26.5095" id="Shape" stroke="#231F20"></path>
                            <path d="M31.8455,36.645 L35.945,32.5455" id="Shape" stroke="#231F20"></path>
                            <path d="M29.219,34.122 L33.3185,30.0225" id="Shape" stroke="#231F20"></path>
                            <path d="M13.598,7.281 L13.682,9.114 L13.55,9.12 C10.484,9.258 8.1155,11.8635 8.252,14.9145 L8.255,14.973 L6.6125,15.0465 C6.5945,15.003 6.5915,14.946 6.5885,14.8995 C6.5,12.8895 7.241,11.034 8.501,9.6525 C9.7625,8.274 11.543,7.371 13.553,7.281 L13.598,7.281 Z" id="Shape" fill="#231F20"></path>
                        </g>
                    </g>
                </g>
            </g>
        </g>
    </g>
</svg>