<?xml version="1.0" encoding="UTF-8" standalone="no"?>
<svg width="53px" height="30px" viewBox="0 0 53 30" version="1.1" xmlns="http://www.w3.org/2000/svg" xmlns:xlink="http://www.w3.org/1999/xlink">
    <!-- Generator: Sketch 41.2 (35397) - http://www.bohemiancoding.com/sketch -->
    <title>Group 42</title>
    <desc>Created with Sketch.</desc>
    <defs></defs>
    <g id="Page-1" stroke="none" stroke-width="1" fill="none" fill-rule="evenodd">
        <g id="Artboard" transform="translate(-22.000000, -37.000000)" stroke="#231F20">
            <g id="Group-42" transform="translate(23.000000, 38.000000)">
                <g id="Page-1">
                    <g>
                        <g id="Group-42">
                            <path d="M50.3900541,26.9857143 C50.3900541,27.7714286 49.7576216,28.4142857 48.9846486,28.4142857 L1.57610811,28.4142857 C0.803135135,28.4142857 0.170702703,27.7714286 0.170702703,26.9857143 L0.170702703,1.54571429 C0.170702703,0.76 0.803135135,0.117142857 1.57610811,0.117142857 L48.9846486,0.117142857 C49.7576216,0.117142857 50.3900541,0.76 50.3900541,1.54571429 L50.3900541,26.9857143 Z" id="Shape"></path>
                            <path d="M0.170702703,20.7 L7.62497297,28.2771429" id="Shape"></path>
                            <path d="M21.2082162,13.6485714 C21.2082162,17.1514286 18.4156757,19.9885714 14.971027,19.9885714 L14.971027,19.9885714 C11.5263784,19.9885714 8.73383784,17.1528571 8.73383784,13.6485714 L8.73383784,13.6485714 C8.73383784,10.1457143 11.5263784,7.30857143 14.971027,7.30857143 L14.971027,7.30857143 C18.4156757,7.30857143 21.2082162,10.1457143 21.2082162,13.6485714 L21.2082162,13.6485714 Z" id="Shape"></path>
                            <path d="M41.8283243,13.5214286 C41.8283243,15.9885714 39.8621622,17.9857143 37.4364324,17.9857143 L37.4364324,17.9857143 C35.0107027,17.9857143 33.0445405,15.9885714 33.0445405,13.5214286 L33.0445405,13.5214286 C33.0445405,11.0542857 35.0107027,9.05714286 37.4364324,9.05714286 L37.4364324,9.05714286 C39.8607568,9.05714286 41.8283243,11.0542857 41.8283243,13.5214286 L41.8283243,13.5214286 Z" id="Shape"></path>
                            <path d="M16.583027,13.6485714 C16.583027,14.5542857 15.8606486,15.2871429 14.971027,15.2871429 L14.971027,15.2871429 C14.0814054,15.2871429 13.359027,14.5528571 13.359027,13.6485714 L13.359027,13.6485714 C13.359027,12.7428571 14.0814054,12.0114286 14.971027,12.0114286 L14.971027,12.0114286 C15.8620541,12.01 16.583027,12.7428571 16.583027,13.6485714 L16.583027,13.6485714 Z" id="Shape"></path>
                            <path d="M39.396973,13.5214286 C39.396973,14.6228571 38.5185946,15.5157143 37.4364324,15.5157143 L37.4364324,15.5157143 C36.3528649,15.5157143 35.4744865,14.6242857 35.4744865,13.5214286 L35.4744865,13.5214286 C35.4744865,12.42 36.3528649,11.5285714 37.4364324,11.5285714 L37.4364324,11.5285714 C38.52,11.53 39.396973,12.4214286 39.396973,13.5214286 L39.396973,13.5214286 Z" id="Shape"></path>
                            <path d="M16.0953514,23.8214286 L33.0923243,23.8214286" id="Shape"></path>
                            <path d="M32.5273514,23.55 L35.704973,28.2771429" id="Shape"></path>
                            <path d="M16.6490811,23.5785714 L13.2395676,28.2771429" id="Shape"></path>
                            <path d="M3.00259459,23.5785714 L3.00259459,3.71571429" id="Shape"></path>
                            <path d="M2.30551351,3.71571429 L48.0683243,3.71571429" id="Shape"></path>
                            <path d="M47.3824865,3.71571429 L47.3824865,23.3114286" id="Shape"></path>
                            <path d="M14.971027,7.30857143 L37.4364324,9.05714286" id="Shape"></path>
                            <path d="M14.971027,19.9871429 L38.2164324,17.9114286" id="Shape"></path>
                            <path d="M50.6121081,19.9871429 L42.5549189,28.2771429" id="Shape"></path>
                        </g>
                    </g>
                </g>
            </g>
        </g>
    </g>
</svg>