<?xml version="1.0" encoding="UTF-8" standalone="no"?>
<svg width="48px" height="39px" viewBox="0 0 48 39" version="1.1" xmlns="http://www.w3.org/2000/svg" xmlns:xlink="http://www.w3.org/1999/xlink">
    <!-- Generator: Sketch 41.2 (35397) - http://www.bohemiancoding.com/sketch -->
    <title>Group 45</title>
    <desc>Created with Sketch.</desc>
    <defs></defs>
    <g id="Page-1" stroke="none" stroke-width="1" fill="none" fill-rule="evenodd">
        <g id="Artboard" transform="translate(-26.000000, -37.000000)" stroke="#231F20">
            <g id="Group-45" transform="translate(27.000000, 37.000000)">
                <g id="Page-1">
                    <g>
                        <g id="Group-45">
                            <path d="M18.131,4.74736364 C16.325,2.1255 13.50225,0.717954545 10.61825,0.567272727 C7.7325,0.420136364 4.78375,1.53163636 2.72575,3.95672727 C0.67125,6.3765 -0.006,9.43977273 0.46825,12.3381818 C0.9425,15.2365909 2.563,17.9719091 5.1075,19.7269091" id="Shape"></path>
                            <path d="M44.9025,16.3285909 C46.341,14.0949545 46.73125,11.3950909 46.2255,8.8725 C45.71975,6.34636364 44.31975,4.00104545 42.183,2.47472727 C39.9815,0.904090909 37.28825,0.402409091 34.7525,0.843818182 C32.22025,1.29054545 29.84725,2.68036364 28.28975,4.89804545" id="Shape"></path>
                            <polyline id="Shape" points="42.18825 19.6010455 42.05 19.5159545 41.91 19.4290909"></polyline>
                            <path d="M17.95775,4.50095455 C18.82225,5.49190909 19.6885,6.48463636 20.55475,7.47913636 C21.41925,8.47009091 22.2855,9.46281818 23.15,10.4555455 C24.03375,9.46281818 24.921,8.47009091 25.80475,7.47913636 C26.69025,6.48463636 28.0535,5.07177273 28.9355,4.07904545" id="Shape"></path>
                            <path d="M4.62975,19.4290909 C7.73775,22.6607727 10.84925,25.8942273 13.9555,29.1294545 C17.06525,32.3611364 20.175,35.5963636 23.28475,38.8280455 C26.4015,35.5981364 29.51125,32.3505 32.6245,29.1135 C35.73775,25.8747273 38.858,22.6430455 42.00275,19.4308636" id="Shape"></path>
                            <polyline id="Shape" points="45.0565 16.3055455 45.046 16.3179545 45.03725 16.3285909"></polyline>
                            <polyline id="Shape" points="1.4045 16.1637273 1.394 16.1530909 1.38175 16.1424545"></polyline>
                            <path d="M40.678,20.7834545 C40.678,20.7834545 41.7105,19.7871818 42.813,18.6366818 C43.912,17.4861818 45.07575,16.1814545 45.33825,15.5645455" id="Shape"></path>
                        </g>
                    </g>
                </g>
            </g>
        </g>
    </g>
</svg>