<?xml version="1.0" encoding="UTF-8" standalone="no"?>
<svg width="46px" height="45px" viewBox="0 0 46 45" version="1.1" xmlns="http://www.w3.org/2000/svg" xmlns:xlink="http://www.w3.org/1999/xlink">
    <!-- Generator: Sketch 41.2 (35397) - http://www.bohemiancoding.com/sketch -->
    <title>Group 31</title>
    <desc>Created with Sketch.</desc>
    <defs></defs>
    <g id="Page-1" stroke="none" stroke-width="1" fill="none" fill-rule="evenodd">
        <g id="Artboard" transform="translate(-26.000000, -33.000000)">
            <g id="Group-31" transform="translate(26.000000, 33.000000)">
                <g id="Page-1">
                    <g>
                        <g id="Group-31">
                            <ellipse id="Oval" stroke="#231F20" cx="22.6720645" cy="22.1454954" rx="9.36767742" ry="9.3822235"></ellipse>
                            <path d="M23.782,6.06359447 C23.782,6.64468894 23.3709677,7.11580645 22.862,7.11580645 L22.862,7.11580645 C22.3530323,7.11580645 21.942,6.64468894 21.942,6.06359447 L21.942,1.08639401 C21.942,0.502327189 22.3530323,0.0312096774 22.862,0.0312096774 L22.862,0.0312096774 C23.3709677,0.0312096774 23.782,0.502327189 23.782,1.08639401 L23.782,6.06359447 Z" id="Shape" fill="#231F20"></path>
                            <path d="M23.782,43.7827189 C23.782,44.3667857 23.3709677,44.8379032 22.862,44.8379032 L22.862,44.8379032 C22.3530323,44.8379032 21.942,44.3667857 21.942,43.7827189 L21.942,38.8055184 C21.942,38.224424 22.3530323,37.7533065 22.862,37.7533065 L22.862,37.7533065 C23.3709677,37.7533065 23.782,38.224424 23.782,38.8055184 L23.782,43.7827189 Z" id="Shape" fill="#231F20"></path>
                            <path d="M39.3997419,22.7815783 C38.8180645,22.7815783 38.3476774,22.371394 38.3476774,21.8586636 L38.3476774,21.8586636 C38.3476774,21.3503917 38.8180645,20.9387212 39.3997419,20.9387212 L44.3707097,20.9387212 C44.9509032,20.9387212 45.4212903,21.3503917 45.4212903,21.8586636 L45.4212903,21.8586636 C45.4212903,22.371394 44.9509032,22.7815783 44.3707097,22.7815783 L39.3997419,22.7815783 Z" id="Shape" fill="#231F20"></path>
                            <path d="M1.73612903,22.7815783 C1.15593548,22.7815783 0.685548387,22.371394 0.685548387,21.8586636 L0.685548387,21.8586636 C0.685548387,21.3503917 1.15593548,20.9387212 1.73612903,20.9387212 L6.70858065,20.9387212 C7.29025806,20.9387212 7.75916129,21.3503917 7.75916129,21.8586636 L7.75916129,21.8586636 C7.75916129,22.371394 7.28877419,22.7815783 6.70858065,22.7815783 L1.73612903,22.7815783 Z" id="Shape" fill="#231F20"></path>
                            <path d="M34.879871,11.1255069 C34.4688387,11.5371774 33.8456129,11.5787903 33.4850323,11.2191359 L33.4850323,11.2191359 C33.1274194,10.8609677 33.1689677,10.2338018 33.5785161,9.82361751 L37.0923226,6.30286866 C37.5033548,5.89268433 38.1250968,5.84958525 38.4856774,6.20923963 L38.4856774,6.20923963 C38.8462581,6.57186636 38.8047097,7.19754608 38.3936774,7.60773041 L34.879871,11.1255069 Z" id="Shape" fill="#231F20"></path>
                            <path d="M8.25032258,37.8008641 C7.83929032,38.2110484 7.21458065,38.2526613 6.85548387,37.8930069 L6.85548387,37.8930069 C6.49490323,37.5348387 6.53793548,36.9106452 6.94748387,36.4974885 L10.4627742,32.979712 C10.8738065,32.5710138 11.4970323,32.5249424 11.856129,32.8875691 L11.856129,32.8875691 C12.2167097,33.2457373 12.1736774,33.8714171 11.764129,34.2830876 L8.25032258,37.8008641 Z" id="Shape" fill="#231F20"></path>
                            <path d="M33.58,34.6620622 C33.1689677,34.2518779 33.1274194,33.6261982 33.4865161,33.26803 L33.4865161,33.26803 C33.8470968,32.9098618 34.4703226,32.9470161 34.8813548,33.361659 L38.3951613,36.8779493 C38.8076774,37.291106 38.8492258,37.9152995 38.4871613,38.2734677 L38.4871613,38.2734677 C38.1265806,38.6346083 37.5048387,38.5929954 37.0938065,38.1813249 L33.58,34.6620622 Z" id="Shape" fill="#231F20"></path>
                            <path d="M6.94748387,7.99116359 C6.53793548,7.57800691 6.4963871,6.95381336 6.85548387,6.59564516 L6.85548387,6.59564516 C7.21458065,6.23450461 7.83929032,6.27611751 8.25032258,6.68778802 L11.764129,10.2070507 C12.1751613,10.6187212 12.2181935,11.2444009 11.856129,11.6025691 L11.856129,11.6025691 C11.4970323,11.9607373 10.8738065,11.9235829 10.4627742,11.5089401 L6.94748387,7.99116359 Z" id="Shape" fill="#231F20"></path>
                        </g>
                    </g>
                </g>
            </g>
        </g>
    </g>
</svg>