<?xml version="1.0" encoding="UTF-8" standalone="no"?>
<svg width="36px" height="46px" viewBox="0 0 36 46" version="1.1" xmlns="http://www.w3.org/2000/svg" xmlns:xlink="http://www.w3.org/1999/xlink">
    <!-- Generator: Sketch 41.2 (35397) - http://www.bohemiancoding.com/sketch -->
    <title>Group 19</title>
    <desc>Created with Sketch.</desc>
    <defs></defs>
    <g id="Page-1" stroke="none" stroke-width="1" fill="none" fill-rule="evenodd">
        <g id="Artboard" transform="translate(-30.000000, -33.000000)">
            <g id="Group-19" transform="translate(30.000000, 33.000000)">
                <g id="Page-1">
                    <g>
                        <g id="Group-19">
                            <path d="M33.5842759,6.18125 C34.2670345,6.18125 34.8256552,6.74375 34.8256552,7.43125 L34.8256552,43.26875 C34.8256552,43.95625 34.2670345,44.51875 33.5842759,44.51875 L2.17737931,44.51875 C1.49462069,44.51875 0.936,43.95625 0.936,43.26875 L0.936,2.4925 C0.936,1.805 1.49462069,1.2425 2.17737931,1.2425 L28.5070345,1.2425 C29.1897931,1.2425 29.7484138,1.805 29.7484138,2.4925 L29.7484138,4.93 C29.7484138,5.6175 30.3070345,6.18 30.9897931,6.18 L33.5842759,6.18 L33.5842759,6.18125 Z" id="Shape" stroke="#231F20"></path>
                            <rect id="Rectangle-path" stroke="#231F20" x="5.15668966" y="5.76875" width="7.44827586" height="7.5"></rect>
                            <rect id="Rectangle-path" fill="#231F20" x="15.0492414" y="5.1275" width="12.3616552" height="1.05"></rect>
                            <rect id="Rectangle-path" fill="#231F20" x="15.0616552" y="7.9525" width="14.7413793" height="1.05"></rect>
                            <rect id="Rectangle-path" fill="#231F20" x="15.0616552" y="10.41375" width="14.7413793" height="1.05"></rect>
                            <rect id="Rectangle-path" fill="#231F20" x="15.165931" y="12.645" width="14.7922759" height="1.1725"></rect>
                            <rect id="Rectangle-path" fill="#231F20" x="4.50993103" y="19.93625" width="27" height="1.1725"></rect>
                            <rect id="Rectangle-path" fill="#231F20" x="4.6142069" y="22.74875" width="27" height="1.1725"></rect>
                            <rect id="Rectangle-path" fill="#231F20" x="4.6142069" y="25.56" width="27" height="1.1725"></rect>
                            <rect id="Rectangle-path" fill="#231F20" x="4.71848276" y="39.10125" width="27" height="1.1725"></rect>
                            <path d="M34.9113103,6.1175 C35.3209655,6.5175 35.4624828,7.04 35.2291034,7.28375 L35.2291034,7.28375 C34.9957241,7.52625 34.4731034,7.39875 34.0634483,6.99875 L29.1910345,2.24 C28.7826207,1.84 28.6398621,1.3175 28.8732414,1.075 L28.8732414,1.075 C29.1066207,0.83125 29.6304828,0.95875 30.0388966,1.35875 L34.9113103,6.1175 Z" id="Shape" fill="#231F20"></path>
                        </g>
                    </g>
                </g>
            </g>
        </g>
    </g>
</svg>