<?xml version="1.0" encoding="UTF-8" standalone="no"?>
<svg width="46px" height="39px" viewBox="0 0 46 39" version="1.1" xmlns="http://www.w3.org/2000/svg" xmlns:xlink="http://www.w3.org/1999/xlink">
    <!-- Generator: Sketch 41.2 (35397) - http://www.bohemiancoding.com/sketch -->
    <title>Group 23</title>
    <desc>Created with Sketch.</desc>
    <defs></defs>
    <g id="Page-1" stroke="none" stroke-width="1" fill="none" fill-rule="evenodd">
        <g id="Artboard" transform="translate(-25.000000, -36.000000)" stroke="#231F20">
            <g id="Group-23" transform="translate(25.000000, 37.000000)">
                <g id="Page-1">
                    <g>
                        <g id="Group-23">
                            <path d="M40.4815517,25.9035 C43.2043103,23.18975 44.9060345,19.4035 44.9060345,15.2435 C44.9060345,6.93975 38.1801724,0.21225 29.9146552,0.21225 L15.5877586,0.21225 C11.455,0.21225 7.7112069,1.886 4.98844828,4.616 C2.28189655,7.32975 0.59637931,11.081875 0.59637931,15.2435 C0.59637931,23.54725 7.32224138,30.27475 15.5877586,30.27475 L28.0022414,30.27475" id="Shape"></path>
                            <path d="M27.8466552,30.266625 C27.8466552,30.266625 34.6324828,30.796375 33.7492069,35.632375 C32.8805172,40.471625 34.3553448,33.025875 40.8073103,25.54925" id="Shape"></path>
                            <path d="M14.9184138,15.51975 C14.9184138,17.240625 13.5278621,18.63325 11.8115517,18.63325 L11.8115517,18.63325 C10.0952414,18.63325 8.70468966,17.240625 8.70468966,15.51975 L8.70468966,15.51975 C8.70468966,13.798875 10.0952414,12.404625 11.8115517,12.404625 L11.8115517,12.404625 C13.5278621,12.404625 14.9184138,13.798875 14.9184138,15.51975 L14.9184138,15.51975 Z" id="Shape"></path>
                            <path d="M25.0477241,15.384875 C25.0477241,17.10575 23.6571724,18.498375 21.9408621,18.498375 L21.9408621,18.498375 C20.2245517,18.498375 18.834,17.10575 18.834,15.384875 L18.834,15.384875 C18.834,13.664 20.2245517,12.26975 21.9408621,12.26975 L21.9408621,12.26975 C23.6571724,12.26975 25.0477241,13.664 25.0477241,15.384875 L25.0477241,15.384875 Z" id="Shape"></path>
                            <path d="M35.3115517,15.51975 C35.3115517,17.240625 33.921,18.63325 32.2046897,18.63325 L32.2046897,18.63325 C30.4883793,18.63325 29.0978276,17.240625 29.0978276,15.51975 L29.0978276,15.51975 C29.0978276,13.798875 30.4883793,12.404625 32.2046897,12.404625 L32.2046897,12.404625 C33.921,12.404625 35.3115517,13.798875 35.3115517,15.51975 L35.3115517,15.51975 Z" id="Shape"></path>
                        </g>
                    </g>
                </g>
            </g>
        </g>
    </g>
</svg>