<?xml version="1.0" encoding="UTF-8" standalone="no"?>
<svg width="23px" height="38px" viewBox="0 0 23 38" version="1.1" xmlns="http://www.w3.org/2000/svg" xmlns:xlink="http://www.w3.org/1999/xlink">
    <!-- Generator: Sketch 41.2 (35397) - http://www.bohemiancoding.com/sketch -->
    <title>Group 18</title>
    <desc>Created with Sketch.</desc>
    <defs></defs>
    <g id="Page-1" stroke="none" stroke-width="1" fill="none" fill-rule="evenodd">
        <g id="Artboard" transform="translate(-28.000000, -35.000000)">
            <g id="Group-18" transform="translate(28.000000, 35.000000)">
                <g id="Page-1">
                    <g>
                        <g id="Group-18">
                            <polyline id="Shape" stroke="#231F20" points="11.5168667 26.7950561 0.783533333 26.7950561 0.783533333 10.2836216"></polyline>
                            <path d="M0.8418,11.0386445 L11.4478667,11.0386445" id="Shape" stroke="#231F20"></path>
                            <path d="M10.8406667,11.2577963 L21.6368667,0.750519751" id="Shape" stroke="#231F20"></path>
                            <path d="M10.9602667,26.5804075 L21.6368667,37.1192058" id="Shape" stroke="#231F20"></path>
                            <path d="M22.1674,37.5530062 C22.1674,37.697106 21.9312667,37.809684 21.6368667,37.809684 L21.6368667,37.809684 C21.344,37.809684 21.1063333,37.697106 21.1063333,37.5530062 L21.1063333,0.255176715 C21.1063333,0.114079002 21.3424667,0 21.6368667,0 L21.6368667,0 C21.9297333,0 22.1674,0.114079002 22.1674,0.255176715 L22.1674,37.5530062 Z" id="Shape" fill="#231F20"></path>
                            <path d="M3.87626667,11.476948 L3.87626667,26.1120832" id="Shape" stroke="#231F20"></path>
                            <path d="M6.5596,26.5804075 L6.5596,11.5700125" id="Shape" stroke="#231F20"></path>
                        </g>
                    </g>
                </g>
            </g>
        </g>
    </g>
</svg>