<?xml version="1.0" encoding="UTF-8" standalone="no"?>
<svg width="54px" height="37px" viewBox="0 0 54 37" version="1.1" xmlns="http://www.w3.org/2000/svg" xmlns:xlink="http://www.w3.org/1999/xlink">
    <!-- Generator: Sketch 41.2 (35397) - http://www.bohemiancoding.com/sketch -->
    <title>Group 35</title>
    <desc>Created with Sketch.</desc>
    <defs></defs>
    <g id="Page-1" stroke="none" stroke-width="1" fill="none" fill-rule="evenodd">
        <g id="Artboard" transform="translate(-24.000000, -29.000000)">
            <g id="Group-35" transform="translate(25.000000, 29.000000)">
                <g id="Page-1">
                    <g>
                        <g id="Group-35">
                            <path d="M45.2597712,28.3749784 C44.7287879,23.7557576 40.1220161,20.1893506 34.52047,20.2107359 C33.966543,14.0682251 28.2437229,9.31904762 21.3573284,9.41445887 C15.103525,9.49835498 9.9329932,13.5237229 8.74155844,18.8749784 C3.89879406,19.0148052 0.0655534941,22.9316017 0.131106988,27.7202597 C0.178633271,31.3491775 2.46317254,34.4220779 5.66218306,35.7035498 L7.02077922,35.9404329 C7.02077922,35.9404329 30.3578231,37.1824242 40.7693568,35.7693506 L40.787384,35.7693506 C41.5822202,35.6492641 42.2836425,35.5291775 42.9178726,35.3761905" id="Shape" stroke="#231F20"></path>
                            <path d="M7.69434137,18.9161039 C7.69434137,18.9161039 16.0474954,18.3485714 15.7836425,23.9087446" id="Shape" stroke="#231F20"></path>
                            <path d="M34.9400124,20.1317749 C34.9400124,20.1317749 27.255504,20.0100433 27.5668831,26.3565368" id="Shape" stroke="#231F20"></path>
                            <path d="M40.7693568,35.7677056 L40.8037724,35.7677056" id="Shape" stroke="#231F20"></path>
                            <path d="M45.0205009,27.1806926 C45.0205009,27.1806926 47.0559369,33.7986147 42.6343537,35.4502165" id="Shape" stroke="#231F20"></path>
                            <path d="M30.0628324,12.3031169 C31.2739332,11.3786147 32.7734694,10.8341126 34.4188621,10.8341126 C38.450402,10.8341126 41.7395485,14.135671 41.7395485,18.1824242 C41.7395485,19.5247619 41.3773655,20.7766234 40.7447743,21.8656277" id="Shape" stroke="#231F20"></path>
                            <path d="M35.2808905,5.59307359 C35.2808905,6.04709957 34.9613173,6.41558442 34.5630798,6.41558442 L34.5630798,6.41558442 C34.1664811,6.41558442 33.845269,6.04709957 33.845269,5.59307359 L33.845269,1.69601732 C33.845269,1.24199134 34.1664811,0.87021645 34.5630798,0.87021645 L34.5630798,0.87021645 C34.9613173,0.87021645 35.2808905,1.24199134 35.2808905,1.69601732 L35.2808905,5.59307359 Z" id="Shape" fill="#231F20"></path>
                            <path d="M47.478757,18.6808658 C47.0280767,18.6808658 46.6593383,18.3600866 46.6593383,17.9587013 L46.6593383,17.9587013 C46.6593383,17.5622511 47.0280767,17.2381818 47.478757,17.2381818 L51.3644403,17.2381818 C51.8183983,17.2381818 52.183859,17.5606061 52.183859,17.9587013 L52.183859,17.9587013 C52.183859,18.3600866 51.8183983,18.6808658 51.3644403,18.6808658 L47.478757,18.6808658 Z" id="Shape" fill="#231F20"></path>
                            <path d="M43.951979,9.55757576 C43.6324057,9.88 43.1440322,9.91125541 42.8605133,9.63160173 L42.8605133,9.63160173 C42.5819109,9.35030303 42.6146877,8.85844156 42.9358998,8.53930736 L45.6793135,5.78060606 C46.0038033,5.46147186 46.4872604,5.42692641 46.7691404,5.70822511 L46.7691404,5.70822511 C47.0526592,5.99116883 47.0166048,6.48138528 46.6953927,6.80380952 L43.951979,9.55757576 Z" id="Shape" fill="#231F20"></path>
                            <path d="M22.1292208,7.10155844 C21.8080087,6.77748918 21.7768707,6.28891775 22.0571119,6.00926407 L22.0571119,6.00926407 C22.3373531,5.72467532 22.8257267,5.75922078 23.1469388,6.08 L25.8919913,8.83705628 C26.2115646,9.15948052 26.2459802,9.64805195 25.9641002,9.93099567 L25.9641002,9.93099567 C25.683859,10.2106494 25.1971243,10.1793939 24.8742733,9.85532468 L22.1292208,7.10155844 Z" id="Shape" fill="#231F20"></path>
                        </g>
                    </g>
                </g>
            </g>
        </g>
    </g>
</svg>