<?xml version="1.0" encoding="UTF-8" standalone="no"?>
<svg width="49px" height="33px" viewBox="0 0 49 33" version="1.1" xmlns="http://www.w3.org/2000/svg" xmlns:xlink="http://www.w3.org/1999/xlink">
    <!-- Generator: Sketch 41.2 (35397) - http://www.bohemiancoding.com/sketch -->
    <title>Group 15</title>
    <desc>Created with Sketch.</desc>
    <defs></defs>
    <g id="Page-1" stroke="none" stroke-width="1" fill="none" fill-rule="evenodd">
        <g id="Artboard" transform="translate(-24.000000, -34.000000)">
            <g id="Group-15" transform="translate(24.000000, 34.000000)">
                <g id="Page-1">
                    <g>
                        <g id="Group-15">
                            <path d="M48.43895,30.5903178 C48.43895,31.2631971 47.8877,31.8137348 47.21395,31.8137348 L2.12905,31.8137348 C1.4553,31.8137348 0.90405,31.2631971 0.90405,30.5903178 L0.90405,11.3019259 C0.90405,10.6290466 1.4553,10.078509 2.12905,10.078509 L47.21395,10.078509 C47.8877,10.078509 48.43895,10.6290466 48.43895,11.3019259 L48.43895,30.5903178 Z" id="Shape" stroke="#231F20"></path>
                            <path d="M14.649775,28.0015675 L35.075425,28.0015675" id="Shape" stroke="#231F20"></path>
                            <rect id="Rectangle-path" fill="#231F20" x="6.8698" y="14.6846738" width="2.130275" height="1.96603106"></rect>
                            <rect id="Rectangle-path" fill="#231F20" x="10.4664" y="14.6846738" width="2.147425" height="1.96603106"></rect>
                            <rect id="Rectangle-path" fill="#231F20" x="14.243075" y="14.6846738" width="2.1805" height="1.96603106"></rect>
                            <rect id="Rectangle-path" fill="#231F20" x="17.930325" y="14.6491947" width="2.1805" height="1.96603106"></rect>
                            <rect id="Rectangle-path" fill="#231F20" x="21.634725" y="14.6124922" width="2.1805" height="1.96725448"></rect>
                            <rect id="Rectangle-path" fill="#231F20" x="25.231325" y="14.6308435" width="2.181725" height="1.96603106"></rect>
                            <rect id="Rectangle-path" fill="#231F20" x="29.026375" y="14.5953644" width="2.179275" height="1.96603106"></rect>
                            <rect id="Rectangle-path" fill="#231F20" x="33.142375" y="14.5953644" width="2.1805" height="1.96603106"></rect>
                            <rect id="Rectangle-path" fill="#231F20" x="36.8284" y="14.5953644" width="2.1805" height="1.96603106"></rect>
                            <rect id="Rectangle-path" fill="#231F20" x="40.51565" y="14.5953644" width="2.1805" height="1.96603106"></rect>
                            <rect id="Rectangle-path" fill="#231F20" x="6.763225" y="17.7591207" width="2.12905" height="1.96603106"></rect>
                            <rect id="Rectangle-path" fill="#231F20" x="10.359825" y="17.7591207" width="2.147425" height="1.96603106"></rect>
                            <rect id="Rectangle-path" fill="#231F20" x="14.1365" y="17.7591207" width="2.179275" height="1.96603106"></rect>
                            <rect id="Rectangle-path" fill="#231F20" x="17.822525" y="17.7236416" width="2.179275" height="1.96480765"></rect>
                            <rect id="Rectangle-path" fill="#231F20" x="21.526925" y="17.6881625" width="2.1805" height="1.96480765"></rect>
                            <rect id="Rectangle-path" fill="#231F20" x="25.12475" y="17.7065137" width="2.1805" height="1.96480765"></rect>
                            <rect id="Rectangle-path" fill="#231F20" x="28.918575" y="17.6698112" width="2.1805" height="1.96603106"></rect>
                            <rect id="Rectangle-path" fill="#231F20" x="33.0358" y="17.6698112" width="2.179275" height="1.96603106"></rect>
                            <rect id="Rectangle-path" fill="#231F20" x="36.721825" y="17.6698112" width="2.179275" height="1.96603106"></rect>
                            <rect id="Rectangle-path" fill="#231F20" x="40.4691" y="17.622098" width="2.179275" height="1.96603106"></rect>
                            <rect id="Rectangle-path" fill="#231F20" x="6.834275" y="20.7626093" width="2.12905" height="1.96603106"></rect>
                            <rect id="Rectangle-path" fill="#231F20" x="10.4321" y="20.7626093" width="2.147425" height="1.96603106"></rect>
                            <rect id="Rectangle-path" fill="#231F20" x="14.20755" y="20.7626093" width="2.179275" height="1.96603106"></rect>
                            <rect id="Rectangle-path" fill="#231F20" x="17.893575" y="20.7259068" width="2.1805" height="1.96603106"></rect>
                            <rect id="Rectangle-path" fill="#231F20" x="21.5992" y="20.6904277" width="2.1805" height="1.96480765"></rect>
                            <rect id="Rectangle-path" fill="#231F20" x="25.1958" y="20.708779" width="2.1805" height="1.96480765"></rect>
                            <rect id="Rectangle-path" fill="#231F20" x="28.99085" y="20.6732999" width="2.179275" height="1.96480765"></rect>
                            <rect id="Rectangle-path" fill="#231F20" x="33.10685" y="20.6732999" width="2.1805" height="1.96480765"></rect>
                            <rect id="Rectangle-path" fill="#231F20" x="36.792875" y="20.6732999" width="2.1805" height="1.96480765"></rect>
                            <rect id="Rectangle-path" fill="#231F20" x="40.51565" y="20.7442581" width="2.1805" height="1.96603106"></rect>
                            <path d="M16.78985,10.0797324 C17.964625,8.1344994 20.0753,6.20394743 23.912,5.50537634 C32.698925,3.9014767 29.874075,1.79352927 30.469425,0.18962963" id="Shape" stroke="#231F20"></path>
                        </g>
                    </g>
                </g>
            </g>
        </g>
    </g>
</svg>